Boon-Bold.sfdir

StartChar: uni0E01
Encoding: 3585 3585 1
Width: 690
VWidth: 0
Flags: W
HStem: 0 21G<90 250 440 600> 502 110<241.752 394.197>
VStem: 90 160<0 347.483> 440 160<0 452.475>
LayerCount: 2
Fore
SplineSet
250 0 m 1
 90 0 l 1
 90 284 l 2
 90 312 112 355 145 374 c 1
 50 423 l 1
 114 542 195 610 325 612 c 1
 521 612 599 497 600 334 c 1
 600 0 l 1
 440 0 l 1
 440 334 l 2
 440 417 418 502 325 502 c 0
 253 502 210 451 190 430 c 1
 290 379 l 1
 290 379 250 351 250 304 c 2
 250 0 l 1
EndSplineSet
Validated: 1
EndChar

StartChar: uni0E02
Encoding: 3586 3586 21
Width: 680
VWidth: 0
Flags: W
HStem: -12 110<316.431 444.934> 304 70<108.321 187.788> 464 65<147 187.437> 545 64<148.208 252.596>
VStem: 25 78<379.808 458.571> 140 160<116.634 232.001> 193 64<379.038 458.655> 286 85<362.738 511.564> 430 160<120.015 590>
LayerCount: 2
Fore
SplineSet
195 609 m 0xfb80
 327 609 371 516 371 407 c 0xfb80
 371 298 300 235 300 160 c 0
 300 123 339 98 368 98 c 0
 414 98 445 120 445 120 c 1
 445 120 430 141 430 210 c 2
 430 590 l 1
 590 590 l 1
 590 100 l 1
 590 100 541 -12 365 -12 c 0
 217 -12 140 39 140 145 c 2
 140 165 l 2xfc80
 140 251 286 334 286 445 c 0
 286 507 237 543 195 545 c 1
 173 545 160 540 147 529 c 1
 208 529 257 482 257 419 c 0
 257 356 208 304 146 304 c 0
 84 304 25 349 25 442 c 0
 25 525 90 609 195 609 c 0xfb80
148 464 m 0
 124 464 103 444 103 419 c 0
 103 394 124 374 148 374 c 0
 173 374 193 394 193 419 c 0
 193 444 173 464 148 464 c 0
EndSplineSet
Validated: 1
EndChar

StartChar: uni0E03
Encoding: 3587 3587 19
Width: 690
VWidth: 0
Flags: W
HStem: -12 110<326.431 454.934> 287 65<98.3212 177.788> 442 65<98.3008 178.012>
VStem: 15 78<356.639 482.837> 150 160<116.634 222.296> 183 64<357.345 436.655> 291 90<352.773 520.4> 440 160<120.015 590>
LayerCount: 2
Fore
SplineSet
130 612 m 1xf7
 200 560 l 1
 270 612 l 1
 270 612 381 552 381 410 c 0xf7
 381 301 310 235 310 160 c 0
 310 123 349 98 378 98 c 0
 424 98 455 120 455 120 c 1
 455 120 440 141 440 210 c 2
 440 590 l 1
 600 590 l 1
 600 100 l 1
 600 100 551 -12 375 -12 c 0
 227 -12 150 39 150 145 c 2
 150 165 l 2xf9
 150 231 291 317 291 448 c 0
 291 524 263 546 263 546 c 1
 200 500 l 1
 135 546 l 1
 135 546 106 528 98 500 c 1
 109 505 126 507 137 507 c 0
 198 507 247 460 247 397 c 0
 247 334 198 287 136 287 c 0
 74 287 15 327 15 420 c 0
 15 573 130 612 130 612 c 1xf7
138 442 m 0
 114 442 93 422 93 397 c 0
 93 372 114 352 138 352 c 0
 163 352 183 372 183 397 c 0
 183 422 163 442 138 442 c 0
EndSplineSet
Validated: 1
EndChar

StartChar: uni0E05
Encoding: 3589 3589 44
Width: 730
VWidth: 0
Flags: W
HStem: 0 21G<110 253.556 490 640> 210 65<299.361 380.512> 365 65<299.493 380.456>
VStem: 70 120<235.845 473.343> 110 140<0 181.772> 385 65<279.488 360.512> 490 150<0 482.604>
LayerCount: 2
Fore
SplineSet
240 612 m 1xf6
 350 543 l 1
 460 612 l 1
 616 570 639 461 640 340 c 2
 640 0 l 1
 490 0 l 1
 490 390 l 2
 490 458 465 493 435 509 c 1
 350 459 l 1
 255 509 l 1
 209 486 190 431 190 390 c 0xf6
 190 304 203 261 208 235 c 1
 224 391 275 430 340 430 c 0
 407 430 450 381 450 320 c 0
 450 259 401 210 340 210 c 0
 308 210 290 225 290 225 c 1
 271 208 250 0 250 0 c 1
 110 0 l 1xee
 110 188 70 206 70 340 c 0
 71 461 105 569 240 612 c 1xf6
340 365 m 0
 315 365 295 345 295 320 c 0
 295 295 315 275 340 275 c 0
 365 275 385 295 385 320 c 0
 385 345 365 365 340 365 c 0
EndSplineSet
Validated: 1
EndChar

StartChar: uni0E06
Encoding: 3590 3590 28
Width: 700
VWidth: 0
Flags: W
HStem: -12 80<128.582 221.418> 178 80<128.582 213.387> 287 65<103.321 182.788> 442 65<103.301 183.012>
VStem: 20 78<356.639 482.837> 40 80<76.5818 169.418> 188 64<357.345 436.655> 230 80<76.758 123> 296 90<347.505 520.4> 450 160<127.03 590>
LayerCount: 2
Fore
SplineSet
135 612 m 1xfac0
 205 560 l 1
 275 612 l 1
 275 612 386 552 386 410 c 0xfac0
 386 335 352 280 331 229 c 1
 388 202 432 174 470 127 c 1
 470 127 450 168 450 210 c 2
 450 590 l 1
 610 590 l 1
 610 40 l 1
 610 40 543 -6 460 -6 c 1
 418 57 369 98 310 123 c 1
 310 48 250 -12 175 -12 c 0
 100 -12 40 48 40 123 c 0xf540
 40 198 100 258 175 258 c 0
 186 258 196 257 206 254 c 1
 248 306 296 369 296 448 c 0
 296 524 268 546 268 546 c 1
 205 500 l 1
 140 546 l 1
 140 546 111 528 103 500 c 1
 114 505 131 507 142 507 c 0
 203 507 252 460 252 397 c 0
 252 334 203 287 141 287 c 0
 79 287 20 327 20 420 c 0
 20 573 135 612 135 612 c 1xfac0
143 442 m 0
 119 442 98 422 98 397 c 0
 98 372 119 352 143 352 c 0
 168 352 188 372 188 397 c 0
 188 422 168 442 143 442 c 0
175 178 m 0
 145 178 120 153 120 123 c 0
 120 93 145 68 175 68 c 0
 205 68 230 93 230 123 c 0xf540
 230 153 205 178 175 178 c 0
EndSplineSet
Validated: 1
EndChar

StartChar: uni0E07
Encoding: 3591 3591 45
Width: 620
VWidth: 0
Flags: W
HStem: 532 80<348.582 441.418>
VStem: 260 80<430.785 523.418> 380 150<115.048 347.938> 450 80<430.758 523.242>
LayerCount: 2
Fore
SplineSet
395 612 m 0xe0
 470 612 530 552 530 477 c 2
 530 38 l 1xd0
 530 38 481 -12 360 -12 c 1
 303 106 122 261 25 300 c 1
 25 440 l 1
 117 403 341 267 405 115 c 1
 405 115 380 181 380 223 c 2
 380 343 l 1
 313 350 260 408 260 477 c 0
 260 552 320 612 395 612 c 0xe0
395 532 m 0
 365 532 340 507 340 477 c 0
 340 447 365 422 395 422 c 0
 425 422 450 447 450 477 c 0
 450 507 425 532 395 532 c 0
EndSplineSet
Validated: 1
EndChar

StartChar: uni0E08
Encoding: 3592 3592 46
Width: 640
VWidth: 0
Flags: W
HStem: 177 65<148.582 241.462> 352 65<148.582 240.875> 502 110<138.311 352.953>
VStem: 75 65<250.582 343.418> 390 160<20.4631 116.731> 420 130<233.254 436.877>
LayerCount: 2
Fore
SplineSet
265 612 m 0xf4
 426 612 550 552 550 341 c 2xf4
 550 25 l 1
 550 25 493 -12 390 -12 c 1xf8
 390 78 338 190 304 247 c 1
 285 206 243 177 195 177 c 0
 129 177 75 231 75 297 c 0
 75 363 129 417 195 417 c 0
 343 417 405 232 405 232 c 1
 414 258 420 332 420 357 c 0
 420 454 339 502 260 502 c 0
 177 502 94 466 25 412 c 1
 25 522 l 1
 73 562 170 612 265 612 c 0xf4
195 352 m 0
 165 352 140 327 140 297 c 0
 140 267 165 242 195 242 c 0
 225 242 250 267 250 297 c 0
 250 327 225 352 195 352 c 0
EndSplineSet
Validated: 1
EndChar

StartChar: uni0E09
Encoding: 3593 3593 47
Width: 680
VWidth: 0
Flags: W
HStem: -15 80<454.519 546.418> 358 65<138.582 231.418> 515 100<166.764 376.638>
VStem: 65 65<256.865 349.418> 145 160<125.04 201.914> 240 65<256.758 349.242> 430 160<252 454.65> 555 80<73.5818 166.148>
LayerCount: 2
Fore
SplineSet
305 615 m 0xf6
 466 615 590 555 590 344 c 2
 590 252 l 1xf6
 569 236 l 1
 609 213 635 169 635 120 c 0
 635 45 575 -15 500 -15 c 0
 433 -15 378 33 367 97 c 1
 332 68 284 18 265 -12 c 1
 156 -12 147 53 145 97 c 1
 145 190 l 1xf9
 98 206 65 251 65 303 c 0
 65 369 119 423 185 423 c 0
 251 423 305 369 305 303 c 2
 305 217 l 2
 305 180 285 125 285 125 c 1
 321 172 398 237 430 250 c 1
 430 356 l 1
 430 453 379 515 300 515 c 0
 217 515 114 478 45 424 c 1
 45 529 l 1
 93 569 210 615 305 615 c 0xf6
185 358 m 0
 155 358 130 333 130 303 c 0
 130 273 155 248 185 248 c 0
 215 248 240 273 240 303 c 0
 240 333 215 358 185 358 c 0
500 175 m 0
 470 175 445 150 445 120 c 0
 445 90 470 65 500 65 c 0
 530 65 555 90 555 120 c 0xf1
 555 150 530 175 500 175 c 0
EndSplineSet
Validated: 1
EndChar

StartChar: uni0E0A
Encoding: 3594 3594 23
Width: 680
VWidth: 0
Flags: W
HStem: -9 110<316.431 444.934> 307 70<108.321 187.788> 467 65<147 187.437> 523 140<544.49 645> 548 64<148.208 254.633>
VStem: 25 78<382.808 461.571> 140 160<119.634 235.001> 193 64<382.038 461.655> 286 85<365.738 481.761> 430 160<123.015 391.976>
LayerCount: 2
Fore
SplineSet
645 663 m 1xd5c0
 645 523 l 1
 572 523 499 487 475 458 c 1
 475 458 590 417 590 320 c 4
 590 240 590 183 590 103 c 1
 590 103 541 -9 365 -9 c 0
 217 -9 140 42 140 148 c 2
 140 168 l 2xd640
 140 254 286 337 286 448 c 0
 286 510 237 546 195 548 c 1
 173 548 160 543 147 532 c 1
 208 532 257 485 257 422 c 0
 257 359 208 307 146 307 c 0
 84 307 25 352 25 445 c 0
 25 528 90 612 195 612 c 0xedc0
 297 612 347 556 364 480 c 1
 409 560 543 663 645 663 c 1xd5c0
148 467 m 0xe540
 124 467 103 447 103 422 c 0
 103 397 124 377 148 377 c 0
 173 377 193 397 193 422 c 0
 193 447 173 467 148 467 c 0xe540
369 445 m 1
 370 433 371 422 371 410 c 0xc4c0
 371 301 300 238 300 163 c 0xc640
 300 126 339 101 368 101 c 0
 414 101 445 123 445 123 c 1
 445 123 430 144 430 213 c 0
 430 263 430 313 430 363 c 1
 427 397 406 425 369 445 c 1
EndSplineSet
Validated: 1
EndChar

StartChar: uni0E0B
Encoding: 3595 3595 22
Width: 690
VWidth: 0
Flags: W
HStem: -12 110<326.431 454.934> 287 65<98.3212 177.788> 442 65<98.3008 178.012> 520 140<557.625 655>
VStem: 15 78<356.639 482.837> 150 160<116.634 222.296> 183 64<357.345 436.655> 291 90<352.773 483.711> 440 160<120.015 395.743>
LayerCount: 2
Fore
SplineSet
655 660 m 1xfb80
 655 520 l 1
 582 520 509 484 485 455 c 1
 485 455 600 427 600 320 c 4
 600 240 600 180 600 100 c 1
 600 100 551 -12 375 -12 c 0
 227 -12 150 39 150 145 c 2
 150 165 l 2xfc80
 150 231 291 317 291 448 c 0
 291 524 263 546 263 546 c 1
 200 500 l 1
 135 546 l 1
 135 546 106 528 98 500 c 1
 109 505 126 507 137 507 c 0
 198 507 247 460 247 397 c 0
 247 334 198 287 136 287 c 0
 74 287 15 327 15 420 c 0
 15 573 130 612 130 612 c 1
 200 560 l 1
 270 612 l 1
 270 612 347 571 372 475 c 1
 415 556 552 660 655 660 c 1xfb80
138 442 m 0
 114 442 93 422 93 397 c 0
 93 372 114 352 138 352 c 0
 163 352 183 372 183 397 c 0xfa80
 183 422 163 442 138 442 c 0
379 442 m 1
 380 432 381 421 381 410 c 0xf980
 381 301 310 235 310 160 c 0xfc80
 310 123 349 98 378 98 c 0
 424 98 455 120 455 120 c 1
 455 120 440 141 440 210 c 0
 440 260 440 310 440 360 c 1
 437 395 416 422 379 442 c 1
EndSplineSet
Validated: 1
EndChar

StartChar: uni0E0C
Encoding: 3596 3596 48
Width: 990
VWidth: 0
Flags: W
HStem: -12 80<173.427 246.573 469.028 560.406> 502 110<241.752 394.197>
VStem: 90 160<209.086 347.483> 90 80<72.4175 145.563> 250 80<71.4275 145.453> 390 75<69.496 157.064> 440 160<234 452.475> 740 160<105.023 590>
LayerCount: 2
Fore
SplineSet
325 612 m 1xe1
 521 612 599 497 600 334 c 0
 600 294 600 255 600 215 c 1xe3
 666 190 737 138 755 105 c 1
 755 105 740 136 740 192 c 2
 740 590 l 1
 900 590 l 1
 900 28 l 1
 900 28 845 -12 760 -12 c 1
 760 -12 723 56 639 95 c 1
 630 35 578 -12 515 -12 c 0
 446 -12 390 44 390 113 c 0xc5
 390 160 416 202 455 223 c 1
 440 234 l 1
 440 267 440 301 440 334 c 0
 440 417 418 502 325 502 c 0
 253 502 210 451 190 430 c 1
 290 379 l 1
 290 379 250 351 250 304 c 2
 250 221 l 1xe3
 297 205 330 160 330 108 c 0
 330 42 276 -12 210 -12 c 0
 144 -12 90 42 90 108 c 2xd9
 90 284 l 2
 90 312 112 355 145 374 c 1
 50 423 l 1
 114 542 195 610 325 612 c 1xe1
515 163 m 0
 487 163 465 141 465 113 c 0xc5
 465 85 487 63 515 63 c 0
 543 63 565 85 565 113 c 0
 565 141 543 163 515 163 c 0
210 148 m 0
 188 148 170 130 170 108 c 0
 170 86 188 68 210 68 c 0
 232 68 250 86 250 108 c 0xd9
 250 130 232 148 210 148 c 0
EndSplineSet
Validated: 1
EndChar

StartChar: uni0E0D
Encoding: 3597 3597 20
Width: 990
VWidth: 0
Flags: W
HStem: -301 90<615.375 730.092> -94 65<479.488 560.512> -12 80<173.427 246.573> -12 110<619.172 748.19> 502 110<241.752 394.197>
VStem: 90 80<72.4175 145.563> 90 160<209.086 347.483> 250 80<71.4275 145.453> 410 65<-178.852 -98.4878> 440 160<116.937 452.475> 565 65<-179.563 -98.4878> 740 160<115.015 590> 810 130<-127.957 -49>
LayerCount: 2
Fore
SplineSet
520 -29 m 0xc8a8
 581 -29 630 -78 630 -139 c 0
 630 -159 625 -188 615 -204 c 1
 627 -208 640 -211 655 -211 c 0
 742 -210 807 -124 810 -49 c 1
 940 -49 l 1
 937 -199 799 -301 655 -301 c 0
 553 -301 410 -251 410 -139 c 0
 410 -78 459 -29 520 -29 c 0xc8a8
520 -94 m 0
 495 -94 475 -114 475 -139 c 0
 475 -164 495 -184 520 -184 c 0
 545 -184 565 -164 565 -139 c 0
 565 -114 545 -94 520 -94 c 0
EndSplineSet
Refer: 4 63247 N 1 0 0 1 0 0 2
Validated: 1
Substitution2: "Thai Descent Remove" uni0E0D.descless
EndChar

StartChar: uni0E0E
Encoding: 3598 3598 49
Width: 690
VWidth: 0
Flags: W
HStem: -302 60<157.437 232.211> -162 60<157.726 232.264> -12 80<123.427 196.573> 502 110<241.752 394.197>
VStem: 40 80<71.4275 145.453> 95 60<-239.068 -164.932> 120 160<209.086 357.901> 200 80<72.4175 145.563> 265 95<-117.89 -60> 440 160<-221.963 452.475>
LayerCount: 2
Fore
SplineSet
325 612 m 1xf240
 521 612 599 497 600 334 c 1
 600 146 600 -42 600 -230 c 1
 600 -230 543 -288 460 -302 c 1
 460 -302 363 -260 304 -225 c 1
 283 -268 249 -302 195 -302 c 0
 143 -302 95 -257 95 -202 c 0
 95 -147 139 -102 195 -102 c 0
 222 -102 233 -108 252 -119 c 1
 259 -104 265 -80 265 -60 c 1
 360 -60 l 1xf4c0
 360 -88 346 -143 331 -161 c 1
 378 -188 460 -222 460 -222 c 1
 460 -222 440 -172 440 -92 c 0
 440 50 440 192 440 334 c 0
 440 417 418 502 325 502 c 0
 253 502 210 451 190 430 c 1
 300 379 l 1
 300 379 280 351 280 304 c 2xf240
 280 108 l 2
 280 42 226 -12 160 -12 c 0
 94 -12 40 42 40 108 c 0xf940
 40 160 73 205 120 221 c 1
 120 284 l 2
 120 312 132 355 165 374 c 1
 50 423 l 1
 114 542 195 610 325 612 c 1xf240
160 148 m 0
 138 148 120 130 120 108 c 0
 120 86 138 68 160 68 c 0
 182 68 200 86 200 108 c 0xf940
 200 130 182 148 160 148 c 0
195 -162 m 0
 173 -162 155 -180 155 -202 c 0xf440
 155 -224 173 -242 195 -242 c 0
 217 -242 235 -224 235 -202 c 0
 235 -180 217 -162 195 -162 c 0
EndSplineSet
Validated: 1
Substitution2: "Thai Descent Shorten" uni0E0E.short
EndChar

StartChar: uni0E0F
Encoding: 3599 3599 50
Width: 690
VWidth: 0
Flags: W
HStem: -302 60<107.437 182.265> -162 60<107.932 182.077> -12 80<123.427 196.573> 502 110<241.752 394.197>
VStem: 40 80<71.4275 145.453> 45 60<-239.068 -164.932> 120 160<209.086 357.901> 200 80<72.4175 145.563> 240 90<-135.125 -60> 440 160<-157.682 452.475>
LayerCount: 2
Fore
SplineSet
325 612 m 1xf240
 521 612 599 497 600 334 c 1
 600 146 600 -42 600 -230 c 1
 600 -230 595 -288 490 -302 c 1
 392 -207 l 1
 299 -302 l 1
 245 -244 l 1
 227 -273 197 -302 145 -302 c 0
 93 -302 45 -257 45 -202 c 0
 45 -147 90 -102 145 -102 c 0
 177 -102 204 -116 227 -137 c 1
 235 -127 240 -98 240 -60 c 1
 330 -60 l 1xf4c0
 330 -111 296 -172 279 -190 c 1
 300 -212 l 1
 392 -110 l 1
 490 -212 l 1
 490 -212 440 -114 440 -47 c 0
 440 80 440 207 440 334 c 0
 440 417 418 502 325 502 c 0
 253 502 210 451 190 430 c 1
 300 379 l 1
 300 379 280 351 280 304 c 2xf240
 280 108 l 2
 280 42 226 -12 160 -12 c 0
 94 -12 40 42 40 108 c 0xf940
 40 160 73 205 120 221 c 1
 120 284 l 2
 120 312 132 355 165 374 c 1
 50 423 l 1
 114 542 195 610 325 612 c 1xf240
160 148 m 0
 138 148 120 130 120 108 c 0
 120 86 138 68 160 68 c 0
 182 68 200 86 200 108 c 0xf940
 200 130 182 148 160 148 c 0
145 -162 m 0
 123 -162 105 -180 105 -202 c 0xf440
 105 -224 123 -242 145 -242 c 0
 167 -242 185 -224 185 -202 c 0
 185 -180 167 -162 145 -162 c 0
EndSplineSet
Validated: 1
Substitution2: "Thai Descent Shorten" uni0E0F.short
EndChar

StartChar: uni0E10
Encoding: 3600 3600 51
Width: 610
VWidth: 0
Flags: W
HStem: -302 60<22.4375 97.2654> -162 60<22.9321 97.077> -82 50<424 496> 94 65<149.488 230.15> 249 65<149.488 229.625> 490 116<532.864 580> 502 110<238.747 427.2>
VStem: -40 60<-239.068 -164.932> 80 65<163.488 244.512> 155 90<-135.125 -60> 365 150<110.038 327.287> 370 50<-158.383 -86> 500 50<-158.009 -86>
LayerCount: 2
Fore
SplineSet
460 -32 m 0xf9d8
 510 -32 550 -72 550 -122 c 0
 550 -221 492 -278 390 -302 c 1
 307 -212 l 1
 224 -302 l 1
 160 -244 l 1
 142 -273 112 -302 60 -302 c 0
 8 -302 -40 -257 -40 -202 c 0
 -40 -147 5 -102 60 -102 c 0
 92 -102 119 -116 142 -137 c 1
 150 -127 155 -98 155 -60 c 1
 245 -60 l 1
 245 -111 211 -172 194 -190 c 1
 225 -217 l 1
 307 -115 l 1
 405 -232 l 1
 415 -229 433 -215 440 -210 c 1
 400 -201 370 -165 370 -122 c 0
 370 -72 410 -32 460 -32 c 0xf9d8
460 -82 m 0
 438 -82 420 -100 420 -122 c 0
 420 -144 438 -162 460 -162 c 0
 482 -162 500 -144 500 -122 c 0
 500 -100 482 -82 460 -82 c 0
60 -162 m 0
 38 -162 20 -180 20 -202 c 0
 20 -224 38 -242 60 -242 c 0
 82 -242 100 -224 100 -202 c 0
 100 -180 82 -162 60 -162 c 0
EndSplineSet
Refer: 3 63232 N 1 0 0 1 0 0 2
Validated: 1
Substitution2: "Thai Descent Remove" uni0E10.descless
EndChar

StartChar: uni0E11
Encoding: 3601 3601 52
Width: 740
VWidth: 0
Flags: W
HStem: 0 21G<150 310 490 650> 287 65<98.3212 177.788> 442 65<98.3008 178.012>
VStem: 15 78<356.639 482.837> 150 160<0 199.688> 183 64<357.345 436.655> 490 160<0 436.358>
LayerCount: 2
Fore
SplineSet
130 612 m 1xf6
 200 560 l 1
 270 612 l 1
 270 612 355 566 376 460 c 1
 428 530 493 600 545 600 c 0
 623 600 650 536 650 400 c 2
 650 0 l 1
 490 0 l 1
 490 410 l 2
 490 431 480 440 480 440 c 1
 363 288 310 214 310 0 c 1
 150 0 l 1
 150 165 l 2xfa
 150 231 291 317 291 448 c 0
 291 524 263 546 263 546 c 1
 200 500 l 1
 135 546 l 1
 135 546 106 528 98 500 c 1
 109 505 126 507 137 507 c 0
 198 507 247 460 247 397 c 0
 247 334 198 287 136 287 c 0
 74 287 15 327 15 420 c 0
 15 573 130 612 130 612 c 1xf6
138 442 m 0
 114 442 93 422 93 397 c 0
 93 372 114 352 138 352 c 0
 163 352 183 372 183 397 c 0xf6
 183 422 163 442 138 442 c 0
EndSplineSet
Validated: 1
EndChar

StartChar: uni0E12
Encoding: 3602 3602 53
Width: 1030
VWidth: 0
Flags: W
HStem: -12 75<521.496 608.058> 0 21G<110 278> 365 65<309.488 390.512>
VStem: 70 125<228.134 472.559> 240 65<279.735 360.512> 395 65<279.797 360.512> 440 75<69.496 157.064> 490 150<234 482.604> 780 160<105.023 590>
LayerCount: 2
Fore
SplineSet
240 612 m 1x7d80
 350 543 l 1
 460 612 l 1
 616 570 639 461 640 340 c 0
 640 298 640 257 640 215 c 1x7d80
 706 190 777 138 795 105 c 1
 795 105 780 136 780 192 c 2
 780 590 l 1
 940 590 l 1
 940 28 l 1
 940 28 885 -12 800 -12 c 1
 800 -12 773 56 689 95 c 1
 680 35 628 -12 565 -12 c 0
 496 -12 440 44 440 113 c 0xba80
 440 160 466 202 505 223 c 1
 490 234 l 1
 490 280 490 338 490 390 c 0
 490 458 465 493 435 509 c 1
 350 459 l 1
 255 509 l 1
 223 486 195 439 195 390 c 1
 197 297 223 227 243 140 c 1
 252 159 294 204 307 219 c 1
 268 236 240 275 240 320 c 0
 240 381 289 430 350 430 c 0
 411 430 460 381 460 320 c 0
 460 168 296 134 260 0 c 1
 110 0 l 1
 110 188 70 206 70 340 c 1
 71 461 105 569 240 612 c 1x7d80
350 365 m 0
 325 365 305 345 305 320 c 0
 305 295 325 275 350 275 c 0
 375 275 395 295 395 320 c 0
 395 345 375 365 350 365 c 0
565 163 m 0
 537 163 515 141 515 113 c 0
 515 85 537 63 565 63 c 0xba80
 593 63 615 85 615 113 c 0
 615 141 593 163 565 163 c 0
EndSplineSet
Validated: 1
EndChar

StartChar: uni0E13
Encoding: 3603 3603 54
Width: 990
VWidth: 0
Flags: W
HStem: -9 80<171.571 248.429 769.719 861.418> 502 110<241.752 394.197>
VStem: 90 160<209.086 347.483> 90 80<72.4175 145.563> 250 80<71.4275 145.453> 440 160<130 452.475> 740 160<268 590> 870 80<79.5818 172.32>
LayerCount: 2
Fore
SplineSet
325 612 m 1xe4
 521 612 599 497 600 334 c 1
 600 213 l 1
 600 130 l 1
 600 130 658 216 740 272 c 1
 740 590 l 1
 900 590 l 1
 900 268 l 1xe6
 871 249 l 1
 918 228 950 181 950 126 c 0
 950 51 890 -9 815 -9 c 0
 744 -9 686 46 680 116 c 1
 680 116 649 86 585 -3 c 1
 441 -3 440 64 440 208 c 2
 440 334 l 2
 440 417 418 502 325 502 c 0
 253 502 210 451 190 430 c 1
 290 379 l 1
 290 379 250 351 250 304 c 2
 250 221 l 1xe5
 297 205 330 160 330 108 c 0
 330 42 276 -12 210 -12 c 0
 144 -12 90 42 90 108 c 2xdc
 90 284 l 2
 90 312 112 355 145 374 c 1
 50 423 l 1
 114 542 195 610 325 612 c 1xe4
815 181 m 0
 785 181 760 156 760 126 c 0
 760 96 785 71 815 71 c 0
 845 71 870 96 870 126 c 0xc5
 870 156 845 181 815 181 c 0
210 148 m 0
 188 148 170 130 170 108 c 0
 170 86 188 68 210 68 c 0
 232 68 250 86 250 108 c 0xdc
 250 130 232 148 210 148 c 0
EndSplineSet
Validated: 1
EndChar

StartChar: uni0E14
Encoding: 3604 3604 55
Width: 730
VWidth: 0
Flags: W
HStem: 0 21G<110 278 490 640> 365 65<309.488 390.512> 502 110<270.592 426.631>
VStem: 70 125<207.8 421.907> 240 65<279.735 360.512> 395 65<279.797 360.512> 490 150<0 433.377>
LayerCount: 2
Fore
SplineSet
350 612 m 0
 546 612 639 497 640 334 c 1
 640 0 l 1
 490 0 l 1
 490 334 l 2
 490 417 443 502 350 502 c 0
 257 502 195 417 195 334 c 1
 196 259 222 214 242 140 c 1
 249 159 293 203 307 219 c 1
 268 236 240 275 240 320 c 0
 240 381 289 430 350 430 c 0
 411 430 460 381 460 320 c 0
 460 168 296 134 260 0 c 1
 110 0 l 1
 110 188 70 200 70 334 c 0
 71 497 170 612 350 612 c 0
350 365 m 0
 325 365 305 345 305 320 c 0
 305 295 325 275 350 275 c 0
 375 275 395 295 395 320 c 0
 395 345 375 365 350 365 c 0
EndSplineSet
Validated: 1
EndChar

StartChar: uni0E15
Encoding: 3605 3605 56
Width: 730
VWidth: 0
Flags: W
HStem: 0 21G<110 278 490 640> 365 65<309.488 390.512>
VStem: 70 125<228.134 472.559> 240 65<279.735 360.512> 395 65<279.797 360.512> 490 150<0 482.604>
LayerCount: 2
Fore
SplineSet
240 612 m 1
 350 543 l 1
 460 612 l 1
 616 570 639 461 640 340 c 1
 640 0 l 1
 490 0 l 1
 490 390 l 2
 490 458 465 493 435 509 c 1
 350 459 l 1
 255 509 l 1
 223 486 195 439 195 390 c 1
 197 297 223 227 243 140 c 1
 252 159 294 204 307 219 c 1
 268 236 240 275 240 320 c 0
 240 381 289 430 350 430 c 0
 411 430 460 381 460 320 c 0
 460 168 296 134 260 0 c 1
 110 0 l 1
 110 188 70 206 70 340 c 1
 71 461 105 569 240 612 c 1
350 365 m 0
 325 365 305 345 305 320 c 0
 305 295 325 275 350 275 c 0
 375 275 395 295 395 320 c 0
 395 345 375 365 350 365 c 0
EndSplineSet
Validated: 1
EndChar

StartChar: uni0E16
Encoding: 3606 3606 25
Width: 690
VWidth: 0
Flags: W
HStem: -12 80<173.427 246.573> 0 21G<440 600> 502 110<241.752 394.197>
VStem: 90 160<209.086 347.483> 90 80<72.4175 145.563> 250 80<71.4275 145.453> 440 160<0 452.475>
LayerCount: 2
Fore
SplineSet
325 612 m 1xb2
 521 612 599 497 600 334 c 1
 600 0 l 1
 440 0 l 1
 440 334 l 2
 440 417 418 502 325 502 c 0
 253 502 210 451 190 430 c 1
 290 379 l 1
 290 379 250 351 250 304 c 2
 250 221 l 1x72
 297 205 330 160 330 108 c 0
 330 42 276 -12 210 -12 c 0
 144 -12 90 42 90 108 c 2xae
 90 284 l 2
 90 312 112 355 145 374 c 1
 50 423 l 1
 114 542 195 610 325 612 c 1xb2
210 148 m 0
 188 148 170 130 170 108 c 0
 170 86 188 68 210 68 c 0
 232 68 250 86 250 108 c 0xae
 250 130 232 148 210 148 c 0
EndSplineSet
Validated: 1
EndChar

StartChar: uni0E17
Encoding: 3607 3607 57
Width: 730
VWidth: 0
Flags: W
HStem: 0 21G<140 300 480 640> 532 80<118.582 211.418>
VStem: 30 80<431.788 523.418> 140 160<0 199.688> 220 80<430.758 523.242> 480 160<0 436.358>
LayerCount: 2
Fore
SplineSet
165 612 m 0xf4
 240 612 300 552 300 477 c 2
 300 360 l 1xec
 347 439 456 600 535 600 c 0
 613 600 640 536 640 400 c 2
 640 0 l 1
 480 0 l 1
 480 410 l 2
 480 431 470 440 470 440 c 1
 353 288 300 214 300 0 c 1
 140 0 l 1
 140 344 l 1
 77 356 30 411 30 477 c 0
 30 552 90 612 165 612 c 0xf4
165 532 m 0
 135 532 110 507 110 477 c 0
 110 447 135 422 165 422 c 0
 195 422 220 447 220 477 c 0
 220 507 195 532 165 532 c 0
EndSplineSet
Validated: 1
EndChar

StartChar: uni0E18
Encoding: 3608 3608 58
Width: 630
VWidth: 0
Flags: W
HStem: -12 110<238.556 381.568> 490 116<529.802 575> 502 110<233.747 422.2>
VStem: 60 160<114.342 280> 370 160<112.023 325.296>
LayerCount: 2
Fore
SplineSet
310 612 m 0xb8
 398 612 456 571 485 540 c 1
 514 580 575 606 575 606 c 1
 575 490 l 1xd8
 575 490 539 488 485 430 c 1
 429 486 364 502 310 502 c 0
 256 502 200 461 200 429 c 1
 375 409 530 401 530 299 c 2
 530 65 l 1
 530 65 498 -12 295 -12 c 0
 92 -12 60 48 60 165 c 2
 60 280 l 1
 220 280 l 1
 220 170 l 1
 221 114 262 98 305 98 c 0
 348 98 385 112 385 112 c 1
 385 112 370 143 370 200 c 2
 370 296 l 2
 370 361 125 359 40 369 c 1
 40 539 190 612 310 612 c 0xb8
EndSplineSet
Validated: 1
EndChar

StartChar: uni0E19
Encoding: 3609 3609 31
Width: 710
VWidth: 0
Flags: W
HStem: -9 80<479.719 571.418> 529 80<118.582 211.418>
VStem: 30 80<428.788 520.418> 140 160<130.018 348.525> 220 80<427.758 520.242> 460 160<257.633 590> 580 80<79.5818 171.573>
LayerCount: 2
Back
SplineSet
165 609 m 4xf2
 240 609 300 549 300 474 c 6xe8
 300 213 l 6
 300 154 290 130 290 130 c 5
 290 130 378 216 460 272 c 5
 460 590 l 5
 620 590 l 5
 620 268 l 5xf4
 591 249 l 5
 638 228 670 181 670 126 c 4
 670 51 610 -9 535 -9 c 4
 464 -9 406 46 400 116 c 5
 400 116 349 86 285 -3 c 5
 141 -3 140 64 140 208 c 6
 140 341 l 5
 77 353 30 408 30 474 c 4
 30 549 90 609 165 609 c 4xf2
165 529 m 4
 135 529 110 504 110 474 c 4
 110 444 135 419 165 419 c 4
 195 419 220 444 220 474 c 4
 220 504 195 529 165 529 c 4
535 181 m 4
 505 181 480 156 480 126 c 4
 480 96 505 71 535 71 c 4
 565 71 590 96 590 126 c 4xe2
 590 156 565 181 535 181 c 4
EndSplineSet
Fore
SplineSet
165 609 m 0xf2
 240 609 300 549 300 474 c 2xe8
 300 213 l 2
 300 154 290 130 290 130 c 1
 290 130 376 225 460 272 c 1
 460 590 l 1
 620 590 l 1
 620 248 l 1xf4
 603 236 l 1
 638 212 660 172 660 126 c 0
 660 51 600 -9 525 -9 c 0
 454 -9 396 46 390 116 c 1
 390 116 349 86 285 -3 c 1
 141 -3 140 64 140 208 c 2
 140 341 l 1
 77 353 30 408 30 474 c 0
 30 549 90 609 165 609 c 0xf2
165 529 m 0
 135 529 110 504 110 474 c 0
 110 444 135 419 165 419 c 0
 195 419 220 444 220 474 c 0
 220 504 195 529 165 529 c 0
525 181 m 0
 495 181 470 156 470 126 c 0
 470 96 495 71 525 71 c 0
 555 71 580 96 580 126 c 0xe2
 580 156 555 181 525 181 c 0
EndSplineSet
Validated: 1
EndChar

StartChar: uni0E1A
Encoding: 3610 3610 5
Width: 770
VWidth: 0
Flags: W
HStem: -12 110<350.414 533.883> 522 90<128.642 221.358>
VStem: 30 90<422.008 513.358> 160 160<127.837 327.216> 230 90<420.758 513.242> 520 160<124.024 590>
LayerCount: 2
Fore
SplineSet
175 612 m 0xf4
 255 612 320 547 320 467 c 2xec
 320 195 l 2
 320 132 366 98 420 98 c 0
 474 98 535 124 535 124 c 1
 535 124 520 157 520 210 c 2
 520 590 l 1
 680 590 l 1
 680 80 l 1
 680 80 628 -12 415 -12 c 0
 202 -12 160 51 160 195 c 2
 160 323 l 1
 87 330 30 392 30 467 c 0
 30 547 95 612 175 612 c 0xf4
175 522 m 0
 145 522 120 497 120 467 c 0
 120 437 145 412 175 412 c 0
 205 412 230 437 230 467 c 0
 230 497 205 522 175 522 c 0
EndSplineSet
Validated: 1
EndChar

StartChar: uni0E1D
Encoding: 3613 3613 42
Width: 750
VWidth: 0
Flags: W
HStem: 532 80<158.582 251.418>
VStem: 70 160<92.8636 351.525> 70 80<430.758 523.242> 260 80<431.788 523.418> 500 160<90 860>
LayerCount: 2
Fore
SplineSet
205 612 m 0xb8
 280 612 340 552 340 477 c 0
 340 411 293 356 230 344 c 1
 230 90 l 1
 335 330 l 1
 395 330 l 1
 500 90 l 1
 500 860 l 1
 660 860 l 1
 660 60 l 1
 660 60 600 -12 455 -12 c 1
 365 200 l 1
 275 -12 l 1
 116 -12 70 43 70 220 c 2xd8
 70 477 l 2
 70 552 130 612 205 612 c 0xb8
205 532 m 0
 175 532 150 507 150 477 c 0xb8
 150 447 175 422 205 422 c 0
 235 422 260 447 260 477 c 0
 260 507 235 532 205 532 c 0
EndSplineSet
Validated: 1
EndChar

StartChar: uni0E1F
Encoding: 3615 3615 43
Width: 800
VWidth: 0
Flags: W
HStem: 532 80<108.582 201.418>
VStem: 20 80<430.785 523.418> 140 150<116.232 347.938> 210 80<430.758 523.242> 560 150<110 860>
LayerCount: 2
Fore
SplineSet
155 612 m 0xe8
 230 612 290 552 290 477 c 2
 290 110 l 1xd8
 390 540 l 1
 460 540 l 1
 560 110 l 1
 560 860 l 1
 710 860 l 1
 710 60 l 1
 710 60 655 -12 510 -12 c 1
 425 360 l 1
 340 -12 l 1
 181 -12 140 16 140 220 c 2
 140 343 l 1
 73 350 20 408 20 477 c 0
 20 552 80 612 155 612 c 0xe8
155 532 m 0
 125 532 100 507 100 477 c 0
 100 447 125 422 155 422 c 0
 185 422 210 447 210 477 c 0
 210 507 185 532 155 532 c 0
EndSplineSet
Validated: 1
EndChar

StartChar: uni0E21
Encoding: 3617 3617 27
Width: 690
VWidth: 0
Flags: W
HStem: -12 80<118.582 211.418> 532 80<118.582 211.418>
VStem: 30 80<76.5818 168.212 431.788 523.418> 140 160<248.475 351.525> 220 80<76.758 123 430.758 523.242> 440 160<127.03 590>
LayerCount: 2
Fore
SplineSet
165 612 m 0xf4
 240 612 300 552 300 477 c 2
 300 238 l 1
 367 209 417 180 460 127 c 1
 460 127 440 168 440 210 c 2
 440 590 l 1
 600 590 l 1
 600 40 l 1
 600 40 533 -6 450 -6 c 1
 408 57 359 98 300 123 c 1xec
 300 48 240 -12 165 -12 c 0
 90 -12 30 48 30 123 c 0
 30 189 77 244 140 256 c 1
 140 344 l 1
 77 356 30 411 30 477 c 0
 30 552 90 612 165 612 c 0xf4
165 532 m 0
 135 532 110 507 110 477 c 0
 110 447 135 422 165 422 c 0
 195 422 220 447 220 477 c 0
 220 507 195 532 165 532 c 0
165 178 m 0
 135 178 110 153 110 123 c 0
 110 93 135 68 165 68 c 0
 195 68 220 93 220 123 c 0
 220 153 195 178 165 178 c 0
EndSplineSet
Validated: 1
EndChar

StartChar: uni0E22
Encoding: 3618 3618 62
Width: 680
VWidth: 0
Flags: W
HStem: -12 110<227.638 436.378> 352 75<210 254.042> 537 75<164.865 255.169>
VStem: 50 160<117.5 217.544> 59 96<435.621 527.889> 265 75<436.012 527.554> 430 160<125.023 590>
LayerCount: 2
Fore
SplineSet
210 612 m 4xf6
 288 612 340 547 340 482 c 4
 340 399 273 355 210 352 c 5
 214 349 224 337 239 337 c 4
 259 337 261 339 295 350 c 6
 355 370 l 5
 355 268 l 5
 295 252 l 6
 253 241 210 206 210 160 c 5
 210 106 283 98 325 98 c 4
 392 98 440 125 440 125 c 1
 440 125 430 157 430 210 c 2
 430 590 l 1
 590 590 l 1
 590 80 l 1
 590 80 516 -12 325 -12 c 4
 134 -12 50 51 50 170 c 4xf6
 50 227 114 285 155 305 c 5
 120 331 59 377 59 462 c 4xee
 59 546 119 612 210 612 c 4xf6
210 537 m 4
 180 537 155 512 155 482 c 4xee
 155 452 180 427 210 427 c 4
 240 427 265 452 265 482 c 4
 265 512 240 537 210 537 c 4
EndSplineSet
EndChar

StartChar: uni0E23
Encoding: 3619 3619 33
Width: 590
VWidth: 0
Flags: W
HStem: -12 90<343.388 416.612> 490 116<509.802 555> 502 110<213.747 402.2>
VStem: 250 90<81.3883 154.684> 350 160<235.164 325.296> 420 90<82.3391 155.563>
LayerCount: 2
Fore
SplineSet
290 612 m 0xb8
 378 612 436 571 465 540 c 1
 494 580 555 606 555 606 c 1
 555 490 l 1xd8
 555 490 519 488 465 430 c 1
 409 486 344 502 290 502 c 0
 236 502 180 461 180 429 c 1
 355 409 510 401 510 299 c 2xb8
 510 118 l 2xb4
 510 46 452 -12 380 -12 c 0
 308 -12 250 46 250 118 c 0
 250 179 293 231 350 244 c 1
 350 296 l 2
 350 361 105 359 20 369 c 1
 20 539 170 612 290 612 c 0xb8
380 158 m 0
 358 158 340 140 340 118 c 0
 340 96 358 78 380 78 c 0
 402 78 420 96 420 118 c 0x94
 420 140 402 158 380 158 c 0
EndSplineSet
Validated: 1
EndChar

StartChar: uni0E24
Encoding: 3620 3620 63
Width: 690
VWidth: 0
Flags: W
HStem: -12 80<173.427 246.573> 502 110<241.752 394.197>
VStem: 90 160<209.086 347.483> 90 80<72.4175 145.563> 250 80<71.4275 145.453> 440 160<-260 452.475>
LayerCount: 2
Fore
SplineSet
325 612 m 1xe4
 521 612 599 497 600 334 c 1
 600 -260 l 1
 440 -260 l 1
 440 334 l 2
 440 417 418 502 325 502 c 0
 253 502 210 451 190 430 c 1
 290 379 l 1
 290 379 250 351 250 304 c 2
 250 221 l 1xe4
 297 205 330 160 330 108 c 0
 330 42 276 -12 210 -12 c 0
 144 -12 90 42 90 108 c 2xdc
 90 284 l 2
 90 312 112 355 145 374 c 1
 50 423 l 1
 114 542 195 610 325 612 c 1xe4
210 148 m 0
 188 148 170 130 170 108 c 0
 170 86 188 68 210 68 c 0
 232 68 250 86 250 108 c 0xdc
 250 130 232 148 210 148 c 0
EndSplineSet
Validated: 1
EndChar

StartChar: uni0E25
Encoding: 3621 3621 64
Width: 650
VWidth: 0
Flags: W
HStem: -12 90<143.388 216.612> 0 21G<400 451.5> 290 90<219.814 353.185> 502 110<147.379 364.724>
VStem: 50 90<82.3391 155.563> 220 90<81.3883 154.684> 400 160<26.3214 241.545> 413 147<318.811 454.329>
LayerCount: 2
Fore
SplineSet
265 612 m 4xbd
 426 612 560 555 560 344 c 2xbd
 560 30 l 1
 560 30 503 0 400 0 c 1
 400 162 l 2x7e
 400 210 366 290 281 290 c 4
 233 290 214 266 210 244 c 5
 268 231 310 179 310 118 c 4
 310 46 252 -12 180 -12 c 4
 108 -12 50 46 50 118 c 6
 50 210 l 6
 50 284 108 380 246 380 c 4
 334 380 376 354 408 318 c 1
 410 335 413 371 413 386 c 0
 413 443 373 502 260 502 c 4
 177 502 109 474 50 405 c 5
 50 515 l 5
 83 560 170 612 265 612 c 4xbd
180 158 m 4
 158 158 140 140 140 118 c 4
 140 96 158 78 180 78 c 4
 202 78 220 96 220 118 c 4
 220 140 202 158 180 158 c 4
EndSplineSet
EndChar

StartChar: uni0E26
Encoding: 3622 3622 65
Width: 690
VWidth: 0
Flags: W
HStem: -12 80<123.427 196.573> 502 110<241.752 394.197>
VStem: 40 80<71.4275 145.453> 120 160<209.086 357.901> 200 80<72.4175 145.563> 440 160<-260 452.475>
LayerCount: 2
Fore
SplineSet
325 612 m 1xd4
 521 612 599 497 600 334 c 1
 600 -260 l 1
 440 -260 l 1
 440 334 l 2
 440 417 418 502 325 502 c 0
 253 502 210 451 190 430 c 1
 300 379 l 1
 300 379 280 351 280 304 c 2xd4
 280 108 l 2
 280 42 226 -12 160 -12 c 0
 94 -12 40 42 40 108 c 0xec
 40 160 73 205 120 221 c 1
 120 284 l 2
 120 312 132 355 165 374 c 1
 50 423 l 1
 114 542 195 610 325 612 c 1xd4
160 148 m 0
 138 148 120 130 120 108 c 0
 120 86 138 68 160 68 c 0
 182 68 200 86 200 108 c 0xec
 200 130 182 148 160 148 c 0
EndSplineSet
Validated: 1
EndChar

StartChar: uni0E27
Encoding: 3623 3623 38
Width: 570
VWidth: 0
Flags: W
HStem: -12 90<323.388 396.612> 502 110<99.2183 288.751>
VStem: 230 90<81.3883 154.684> 330 160<235.164 459.687> 400 90<82.3391 155.563>
LayerCount: 2
Fore
SplineSet
215 612 m 0xf0
 376 612 490 561 490 350 c 2xf0
 490 118 l 2xe8
 490 46 432 -12 360 -12 c 0
 288 -12 230 46 230 118 c 0
 230 179 273 231 330 244 c 1
 330 350 l 1
 328 450 296 502 215 502 c 0
 128 502 73 467 20 420 c 1
 20 540 l 1
 60 575 119 612 215 612 c 0xf0
360 158 m 0
 338 158 320 140 320 118 c 0
 320 96 338 78 360 78 c 0
 382 78 400 96 400 118 c 0xe8
 400 140 382 158 360 158 c 0
EndSplineSet
Validated: 1
EndChar

StartChar: uni0E28
Encoding: 3624 3624 66
Width: 730
VWidth: 0
Flags: W
HStem: 0 21G<110 253.556 490 640> 210 65<299.361 380.512> 365 65<299.818 380.456> 502 110<257.222 427.169> 520 140<597.888 695>
VStem: 70 120<236.178 433.105> 110 140<0 182.379> 385 65<279.488 360.512> 490 150<0 433.582>
LayerCount: 2
Fore
SplineSet
695 660 m 1xed80
 695 520 l 1xed80
 660 520 625 512 596 500 c 1
 625 455 640 398 640 334 c 2
 640 0 l 1
 490 0 l 1
 490 334 l 2
 490 417 443 502 350 502 c 0
 236 502 190 422 190 334 c 0xf580
 190 285 201 249 203 235 c 1
 223 362 270 430 340 430 c 0
 407 430 450 381 450 320 c 0
 450 259 401 210 340 210 c 0
 308 210 290 225 290 225 c 1
 271 208 250 0 250 0 c 1
 110 0 l 1xf380
 110 188 70 200 70 327 c 0
 71 482 154 612 350 612 c 0xf580
 414 612 467 600 509 578 c 1
 566 624 635 660 695 660 c 1xed80
340 365 m 0
 315 365 295 345 295 320 c 0
 295 295 315 275 340 275 c 0
 365 275 385 295 385 320 c 0
 385 345 365 365 340 365 c 0
EndSplineSet
Validated: 1
EndChar

StartChar: uni0E29
Encoding: 3625 3625 67
Width: 770
VWidth: 0
Flags: W
HStem: -12 110<340.414 523.883> 250 87<490 510> 250 64<377.298 443.878> 384 45<378.203 442.391> 522 90<118.642 211.358>
VStem: 20 90<422.008 513.358> 150 160<127.837 327.216> 220 90<420.758 513.242> 330 45<316.626 380.797> 445 45<337.098 380.85> 510 160<124.024 250 408 590>
LayerCount: 2
Fore
SplineSet
165 612 m 0xdee0
 245 612 310 547 310 467 c 2xdde0
 310 195 l 2
 310 132 356 98 410 98 c 0
 464 98 525 124 525 124 c 1
 525 124 510 157 510 210 c 2
 510 250 l 1
 507 250 504 250 500 250 c 0
 466 250 429 255 406 261 c 0
 362 274 330 305 330 349 c 0
 330 393 366 429 410 429 c 0
 451 429 484 399 489 360 c 1
 490 340 l 1
 497 339 503 338 510 337 c 1
 510 590 l 1
 670 590 l 1
 670 408 l 1
 706 441 738 481 760 519 c 1
 760 369 l 1
 731 335 700 312 670 295 c 1
 670 80 l 1
 670 80 618 -12 405 -12 c 0
 192 -12 150 51 150 195 c 2
 150 323 l 1
 77 330 20 392 20 467 c 0
 20 547 85 612 165 612 c 0xdee0
165 522 m 0
 135 522 110 497 110 467 c 0
 110 437 135 412 165 412 c 0
 195 412 220 437 220 467 c 0
 220 497 195 522 165 522 c 0
410 384 m 0
 391 384 375 368 375 349 c 0
 375 330 391 314 410 314 c 0xbce0
 429 314 445 330 445 349 c 0
 445 368 429 384 410 384 c 0
EndSplineSet
Validated: 1
EndChar

StartChar: uni0E2A
Encoding: 3626 3626 68
Width: 660
VWidth: 0
Flags: W
HStem: -12 90<153.388 226.612> 0 21G<400 451.5> 290 90<229.814 361.017> 502 110<157.379 370.692> 520 140<525.315 615>
VStem: 60 90<82.3391 155.563> 230 90<81.3883 154.684> 400 160<26.3214 248.801> 413 147<318.811 460.304>
LayerCount: 2
Fore
SplineSet
615 660 m 1x2e80
 615 520 l 1
 583 520 552 513 524 503 c 1
 547 464 560 412 560 344 c 2x2e80
 560 30 l 1
 560 30 503 0 400 0 c 1
 400 162 l 2x6f
 400 210 376 290 291 290 c 0
 243 290 224 266 220 244 c 1
 278 231 320 179 320 118 c 0
 320 46 262 -12 190 -12 c 0
 118 -12 60 46 60 118 c 2
 60 210 l 2
 60 284 118 380 256 380 c 0
 344 380 376 354 408 318 c 1
 410 335 413 371 413 386 c 0
 413 443 383 502 270 502 c 0
 187 502 119 474 60 405 c 1
 60 515 l 1
 93 560 180 612 275 612 c 0xb680
 335 612 391 604 436 583 c 1
 492 626 557 660 615 660 c 1x2e80
190 158 m 0
 168 158 150 140 150 118 c 0
 150 96 168 78 190 78 c 0xa6
 212 78 230 96 230 118 c 0
 230 140 212 158 190 158 c 0
EndSplineSet
Validated: 1
EndChar

StartChar: uni0E2B
Encoding: 3627 3627 32
Width: 710
VWidth: 0
Flags: W
HStem: 0 21G<140 300 460 620> 532 80<118.582 211.418> 547 65<483.582 576.418>
VStem: 30 80<431.788 523.418> 140 160<0 170.792 292 351.525> 220 80<430.758 523.242> 410 65<445.804 538.418> 460 160<0 323> 585 65<445.881 538.418>
LayerCount: 2
Fore
SplineSet
165 612 m 0xd9
 240 612 300 552 300 477 c 2xd4
 300 292 l 1
 321 318 391 377 437 416 c 1
 420 436 410 463 410 492 c 0
 410 558 464 612 530 612 c 0
 596 612 650 558 650 492 c 0xba80
 650 450 629 414 597 392 c 1
 620 377 l 1
 620 0 l 1
 460 0 l 1
 460 323 l 1
 352 234 300 187 300 0 c 1
 140 0 l 1
 140 344 l 1
 77 356 30 411 30 477 c 0
 30 552 90 612 165 612 c 0xd9
530 547 m 0xb280
 500 547 475 522 475 492 c 0
 475 462 500 437 530 437 c 0
 560 437 585 462 585 492 c 0
 585 522 560 547 530 547 c 0xb280
165 532 m 0xd4
 135 532 110 507 110 477 c 0
 110 447 135 422 165 422 c 0
 195 422 220 447 220 477 c 0
 220 507 195 532 165 532 c 0xd4
EndSplineSet
Validated: 1
EndChar

StartChar: uni0E2C
Encoding: 3628 3628 69
Width: 850
VWidth: 0
Flags: W
HStem: 532 80<108.582 201.418> 595 65<573.582 666.066>
VStem: 20 80<430.785 523.418> 140 150<116.232 347.938> 210 80<430.758 523.242> 500 65<493.526 586.418> 560 150<110 437.553> 675 65<543 586.059>
LayerCount: 2
Fore
SplineSet
620 660 m 0x64
 685 660 738 608 740 543 c 1x65
 770 558 820 600 820 600 c 1
 820 490 l 1
 820 490 772 450 710 427 c 1
 710 60 l 1
 710 60 655 -12 510 -12 c 1
 425 360 l 1
 340 -12 l 1
 181 -12 140 16 140 220 c 2
 140 343 l 1x72
 73 350 20 408 20 477 c 0
 20 552 80 612 155 612 c 0
 230 612 290 552 290 477 c 2
 290 110 l 1
 390 540 l 1
 460 540 l 1
 560 110 l 1
 560 436 l 1xaa
 524 457 500 496 500 540 c 0
 500 606 554 660 620 660 c 0x64
620 595 m 0
 590 595 565 570 565 540 c 0
 565 510 590 485 620 485 c 0
 650 485 675 510 675 540 c 0
 675 570 650 595 620 595 c 0
155 532 m 0xa8
 125 532 100 507 100 477 c 0
 100 447 125 422 155 422 c 0
 185 422 210 447 210 477 c 0
 210 507 185 532 155 532 c 0xa8
EndSplineSet
Validated: 1
EndChar

StartChar: uni0E2D
Encoding: 3629 3629 70
Width: 660
VWidth: 0
Flags: W
HStem: -12 100<232.613 415.975> 353 80<158.582 251.418> 515 100<164.528 382.906>
VStem: 70 148<104.111 168.609> 70 80<251.758 344.242> 260 80<251.516 344.418> 420 160<124.023 477.256>
LayerCount: 2
Fore
SplineSet
290 615 m 0xf6
 451 615 580 565 580 354 c 2
 580 117 l 1
 580 117 527 -12 320 -12 c 0
 113 -12 70 84 70 177 c 2
 70 298 l 2xee
 70 373 130 433 205 433 c 0
 280 433 340 373 340 298 c 0
 340 228 286 170 218 164 c 1
 218 147 l 2
 218 99 272 88 320 88 c 0
 358 88 418 111 435 124 c 1
 435 124 420 156 420 210 c 2
 420 373 l 2
 420 462 396 515 290 515 c 0
 219 515 140 491 60 427 c 1
 60 537 l 1
 114 580 200 615 290 615 c 0xf6
205 353 m 0
 175 353 150 328 150 298 c 0
 150 268 175 243 205 243 c 0
 235 243 260 268 260 298 c 0
 260 328 235 353 205 353 c 0
EndSplineSet
Validated: 1
EndChar

StartChar: uni0E2E
Encoding: 3630 3630 71
Width: 670
VWidth: 0
Flags: W
HStem: -12 100<232.613 415.975> 353 80<158.582 251.418> 515 100<164.528 382.628> 520 140<549.063 635>
VStem: 70 148<104.111 168.609> 70 80<251.758 344.242> 260 80<251.516 344.418> 420 160<124.023 477.375>
LayerCount: 2
Fore
SplineSet
635 660 m 1xdb
 635 520 l 1
 605 520 574 514 547 504 c 1
 568 467 580 418 580 354 c 2
 580 117 l 1
 580 117 527 -12 320 -12 c 0
 113 -12 70 84 70 177 c 2
 70 298 l 2xd7
 70 373 130 433 205 433 c 0
 280 433 340 373 340 298 c 0
 340 228 286 170 218 164 c 1
 218 147 l 2
 218 99 272 88 320 88 c 0
 358 88 418 111 435 124 c 1
 435 124 420 156 420 210 c 2
 420 373 l 2
 420 462 396 515 290 515 c 0
 219 515 140 491 60 427 c 1
 60 537 l 1
 114 580 200 615 290 615 c 0xeb
 353 615 411 607 459 585 c 1
 514 628 578 660 635 660 c 1xdb
205 353 m 0
 175 353 150 328 150 298 c 0
 150 268 175 243 205 243 c 0
 235 243 260 268 260 298 c 0
 260 328 235 353 205 353 c 0
EndSplineSet
Validated: 1
EndChar

StartChar: uni0E2F
Encoding: 3631 3631 72
Width: 610
VWidth: 0
Flags: W
HStem: -12 90<240 340.302> 328 90<210.218 313.415> 530 65<79.4878 160.512>
VStem: 10 65<445.255 525.512> 165 65<444.327 525.512> 360 160<100.126 368.499> 410 110<507.859 570>
LayerCount: 2
Fore
SplineSet
120 595 m 0xfc
 181 595 230 546 230 485 c 0
 230 465 228 439 210 418 c 1
 302 418 395 479 410 570 c 1
 520 570 l 1xfa
 520 108 l 1
 520 108 461 -12 210 -12 c 1
 240 78 l 1
 323 78 360 118 360 118 c 5
 360 278 l 6
 360 279 360 281 360 282 c 4
 360 334 405 403 405 403 c 5
 405 403 347 328 215 328 c 0
 113 328 10 373 10 485 c 0
 10 546 59 595 120 595 c 0xfc
120 530 m 0
 95 530 75 510 75 485 c 0
 75 460 95 440 120 440 c 0
 145 440 165 460 165 485 c 0
 165 510 145 530 120 530 c 0
EndSplineSet
Validated: 1
EndChar

StartChar: uni0E31
Encoding: 3633 3633 15
Width: 0
VWidth: 0
Flags: W
HStem: 690 90<-354.625 -239.908> 897 65<-490.512 -409.488>
VStem: -560 65<812.148 892.512> -405 65<811.437 892.512> -160 130<863.043 942>
LayerCount: 2
Fore
SplineSet
-450 962 m 0
 -389 962 -340 913 -340 852 c 0
 -340 832 -345 803 -355 787 c 1
 -343 783 -330 780 -315 780 c 0
 -228 781 -163 867 -160 942 c 1
 -30 942 l 1
 -33 792 -171 690 -315 690 c 0
 -417 690 -560 740 -560 852 c 0
 -560 913 -511 962 -450 962 c 0
-450 897 m 0
 -475 897 -495 877 -495 852 c 0
 -495 827 -475 807 -450 807 c 0
 -425 807 -405 827 -405 852 c 0
 -405 877 -425 897 -450 897 c 0
EndSplineSet
Validated: 1
Position2: "Left Upper Vowel" dx=-100 dy=0 dh=0 dv=0
Position2: "Normal Upper Vowel" dx=100 dy=0 dh=0 dv=0
EndChar

StartChar: uni0E32
Encoding: 3634 3634 37
Width: 540
VWidth: 0
Flags: W
HStem: 0 21G<305 465> 502 110<91.74 263.343>
VStem: 305 160<0 451.02>
LayerCount: 2
Fore
SplineSet
305 0 m 1
 305 350 l 1
 303 450 258 502 205 502 c 0
 118 502 78 473 10 420 c 1
 10 540 l 1
 55 575 109 612 205 612 c 0
 397 612 458 522 465 350 c 1
 465 0 l 1
 305 0 l 1
EndSplineSet
Validated: 1
Substitution2: "Thai Lakkhangyao" uni0E45
EndChar

StartChar: uni0E34
Encoding: 3636 3636 11
Width: 0
VWidth: 0
Flags: W
HStem: 690 60<-545 -280> 812 90<-514.864 -323.734>
LayerCount: 2
Fore
SplineSet
-670 690 m 1
 -670 787 -593 902 -430 902 c 1
 -290 897 -199 811 -150 690 c 1
 -670 690 l 1
-430 812 m 0
 -501 812 -528 782 -545 750 c 5
 -280 750 l 5
 -318 788 -354 812 -430 812 c 0
EndSplineSet
Validated: 1
Position2: "Left Upper Vowel" dx=-150 dy=0 dh=0 dv=0
Position2: "Normal Upper Vowel" dx=50 dy=0 dh=0 dv=0
EndChar

StartChar: uni0E35
Encoding: 3637 3637 13
Width: 0
VWidth: 0
Flags: W
HStem: 690 60<-545 -280> 812 90<-514.864 -324.253>
LayerCount: 2
Fore
SplineSet
-670 690 m 1
 -670 787 -593 902 -430 902 c 1
 -347 899 -281 868 -231 817 c 1
 -310 940 l 1
 -150 940 l 1
 -150 690 l 1
 -670 690 l 1
-430 812 m 0
 -501 812 -528 782 -545 750 c 5
 -280 750 l 5
 -318 788 -354 812 -430 812 c 0
EndSplineSet
Validated: 1
Position2: "Left Upper Vowel" dx=-150 dy=0 dh=0 dv=0
Position2: "Normal Upper Vowel" dx=50 dy=0 dh=0 dv=0
EndChar

StartChar: uni0E36
Encoding: 3638 3638 18
Width: 0
VWidth: 0
Flags: W
HStem: 690 107<-259.562 -179.962> 690 60<-545 -280> 812 90<-514.864 -324.02> 887 55<-258.942 -178.642>
VStem: -670 406<690 842> -174 54<801.911 881.744>
LayerCount: 2
Fore
SplineSet
-220 942 m 4x1c
 -164.771 942 -120 897.229 -120 842 c 4
 -120 801.055 -144.609 765.873 -179.844 750.406 c 5
 -168.573 731.521 -158.628 711.306 -150 690 c 5
 -670 690 l 5
 -670 787 -593 902 -430 902 c 5x6c
 -386.804 900.457 -348.291 891.208 -314.219 875.594 c 5
 -300.415 914.292 -263.439 942 -220 942 c 4x1c
-219 887 m 4x9c
 -243.853 887 -264 866.853 -264 842 c 4
 -264 817.147 -243.853 797 -219 797 c 4
 -194.147 797 -174 817.147 -174 842 c 4
 -174 866.853 -194.147 887 -219 887 c 4x9c
-430 812 m 4x6c
 -501 812 -528 782 -545 750 c 5
 -280 750 l 5
 -318 788 -354 812 -430 812 c 4x6c
EndSplineSet
Validated: 524289
Position2: "Left Upper Vowel" dx=-150 dy=0 dh=0 dv=0
Position2: "Normal Upper Vowel" dx=50 dy=0 dh=0 dv=0
EndChar

StartChar: uni0E37
Encoding: 3639 3639 17
Width: 0
VWidth: 0
Flags: W
HStem: 690 60<-545 -280> 812 90<-514.864 -345.693>
VStem: -240 90<826 940>
LayerCount: 2
Fore
SplineSet
-670 690 m 1
 -670 787 -593 902 -430 902 c 1
 -399 901 -371 896 -345 888 c 1
 -400 940 l 1
 -280 940 l 1
 -280 857 l 1
 -266 848 -252 837 -240 826 c 1
 -240 940 l 1
 -150 940 l 1
 -150 690 l 1
 -670 690 l 1
-430 812 m 0
 -501 812 -528 782 -545 750 c 5
 -280 750 l 5
 -318 788 -354 812 -430 812 c 0
EndSplineSet
Validated: 1
Position2: "Left Upper Vowel" dx=-150 dy=0 dh=0 dv=0
Position2: "Normal Upper Vowel" dx=50 dy=0 dh=0 dv=0
EndChar

StartChar: uni0E38
Encoding: 3640 3640 6
Width: 0
VWidth: 0
Flags: W
HStem: -300 65<-240.512 -159.488>
VStem: -310 65<-385.604 -304.488> -220 130<-570 -445.306> -155 65<-385.588 -304.563>
LayerCount: 2
Fore
SplineSet
-200 -235 m 0xe0
 -139 -235 -90 -284 -90 -345 c 2xd0
 -90 -570 l 1
 -220 -570 l 1
 -220 -453 l 1
 -271 -444 -310 -399 -310 -345 c 0
 -310 -284 -261 -235 -200 -235 c 0xe0
-200 -300 m 0
 -225 -300 -245 -320 -245 -345 c 0
 -245 -370 -225 -390 -200 -390 c 0
 -175 -390 -155 -370 -155 -345 c 0
 -155 -320 -175 -300 -200 -300 c 0
EndSplineSet
Validated: 1
Position2: "Lower Vowel" dx=0 dy=180 dh=0 dv=0
EndChar

StartChar: uni0E39
Encoding: 3641 3641 40
Width: 0
VWidth: 0
Flags: W
HStem: -580 75<-287.929 -211.063> -300 65<-440.512 -359.488>
VStem: -510 65<-385.559 -304.488> -410 120<-503.337 -449.637> -355 65<-385.588 -304.563> -210 120<-503.906 -250>
LayerCount: 2
Fore
SplineSet
-400 -235 m 0xf4
 -339 -235 -290 -284 -290 -345 c 2xec
 -290 -464 l 2
 -290 -494 -273 -505 -250 -505 c 0
 -232 -505 -210 -498 -210 -498 c 1
 -210 -250 l 1
 -90 -250 l 1
 -90 -528 l 1
 -90 -528 -156 -580 -250 -580 c 0
 -343 -580 -410 -557 -410 -488 c 2
 -410 -455 l 1
 -466 -450 -510 -402 -510 -345 c 0
 -510 -284 -461 -235 -400 -235 c 0xf4
-400 -300 m 0
 -425 -300 -445 -320 -445 -345 c 0
 -445 -370 -425 -390 -400 -390 c 0
 -375 -390 -355 -370 -355 -345 c 0
 -355 -320 -375 -300 -400 -300 c 0
EndSplineSet
Validated: 1
Position2: "Lower Vowel" dx=0 dy=180 dh=0 dv=0
EndChar

StartChar: uni0E3A
Encoding: 3642 3642 10
Width: 0
VWidth: 0
Flags: W
HStem: -476 190<-248.69 -121.31>
VStem: -280 190<-444.69 -317.31>
LayerCount: 2
Fore
SplineSet
-90 -381 m 0
 -90 -433 -133 -476 -185 -476 c 0
 -237 -476 -280 -433 -280 -381 c 0
 -280 -329 -237 -286 -185 -286 c 0
 -133 -286 -90 -329 -90 -381 c 0
EndSplineSet
Validated: 1
Position2: "Lower Vowel" dx=0 dy=220 dh=0 dv=0
EndChar

StartChar: uni0E3F
Encoding: 3647 3647 74
Width: 790
VWidth: 0
Flags: HW
HStem: 0 160<280 340 440 506.404> 380 132<280 340>
VStem: 80 200<160 380 512 710> 340 100<-150 0 160 380 518 705 860 1010> 510 200<546.424 679.46> 550 200<201.348 343.701>
LayerCount: 2
Back
SplineSet
80 0 m 5
 80 860 l 5
 400 860 l 6
 621 860 710 758 710 611 c 4
 710 555 681 494 610 452 c 5
 724 413 750 321 750 241 c 4
 750 66 637 0 500 0 c 6
 80 0 l 5
280 380 m 5
 280 160 l 5
 430 160 l 6
 509 160 550 219 550 272 c 4
 550 325 514 380 430 380 c 6
 280 380 l 5
280 512 m 5
 400 512 l 6
 475 512 510 565 510 611 c 4
 510 657 483 710 400 710 c 6
 280 710 l 5
 280 512 l 5
EndSplineSet
Fore
SplineSet
80 0 m 5
 80 860 l 5
 360 860 l 6
 581 860 670 758 670 611 c 4
 670 555 641 494 570 452 c 5
 684 413 710 321 710 241 c 4
 710 66 597 0 460 0 c 6
 80 0 l 5
240 390 m 5
 240 140 l 5
 430 140 l 6
 509 140 550 219 550 272 c 4
 550 325 513.884 394.415 430 390 c 5
 240 390 l 5
240 502 m 5
 400 502 l 6
 475 502 510 565 510 611 c 4
 510 657 483 730 400 730 c 6
 240 730 l 5
 240 502 l 5
EndSplineSet
EndChar

StartChar: uni0E40
Encoding: 3648 3648 8
Width: 360
VWidth: 0
Flags: W
HStem: -12 80<163.427 236.573>
VStem: 80 160<209.086 590> 80 80<72.4175 145.563> 240 80<71.4275 145.453>
LayerCount: 2
Fore
SplineSet
80 590 m 1xc0
 240 590 l 1
 240 221 l 1xc0
 287 205 320 160 320 108 c 0
 320 42 266 -12 200 -12 c 0
 134 -12 80 42 80 108 c 2xb0
 80 590 l 1xc0
200 148 m 0
 178 148 160 130 160 108 c 0
 160 86 178 68 200 68 c 0
 222 68 240 86 240 108 c 0xb0
 240 130 222 148 200 148 c 0
EndSplineSet
Validated: 1
EndChar

StartChar: uni0E42
Encoding: 3650 3650 75
Width: 350
VWidth: 0
Flags: W
HStem: -12 80<168.427 241.573> 900 112<324.413 395> 932 100<95.2074 245.985>
VStem: 85 160<209.086 714.966> 85 80<72.4175 145.563> 245 80<71.4275 145.453>
LayerCount: 2
Fore
SplineSet
165 1032 m 0xa8
 235 1032 276 1002 304 970 c 1
 321 989 365 1012 395 1012 c 1
 395 900 l 1xc8
 364 897 301 875 285 855 c 1
 265 889 241 932 165 932 c 0xa8
 115 932 93 908 75 882 c 1
 134 849 245 785 245 542 c 2
 245 221 l 1xb0
 292 205 325 160 325 108 c 0
 325 42 271 -12 205 -12 c 0
 139 -12 85 42 85 108 c 2xac
 85 629 l 2xb0
 85 733 61 832 -50 832 c 1
 -50 939 45 1032 165 1032 c 0xa8
205 148 m 0
 183 148 165 130 165 108 c 0
 165 86 183 68 205 68 c 0
 227 68 245 86 245 108 c 0x8c
 245 130 227 148 205 148 c 0
EndSplineSet
Validated: 1
EndChar

StartChar: uni0E43
Encoding: 3651 3651 76
Width: 350
VWidth: 0
Flags: W
HStem: -12 80<168.427 241.573> 727 70<33.3212 112.788> 887 65<72 112.437> 968 64<73.4836 196.3>
VStem: -50 78<802.808 881.571> 85 160<209.086 597.603> 85 80<72.4175 145.563> 118 64<802.038 881.655> 231 99<776.308 934.178> 245 80<71.4275 145.453>
LayerCount: 2
Fore
SplineSet
130 1032 m 0xf980
 270 1032 330 939 330 830 c 0xf980
 330 721 245 642 245 490 c 2
 245 221 l 1xfc
 292 205 325 160 325 108 c 0
 325 42 271 -12 205 -12 c 0
 139 -12 85 42 85 108 c 2xfa40
 85 490 l 2xfc
 85 633 231 757 231 868 c 0
 231 922 191 968 125 968 c 0
 105 968 84 962 72 952 c 1
 133 952 182 905 182 842 c 0
 182 779 133 727 71 727 c 0
 9 727 -50 772 -50 865 c 0
 -50 948 25 1032 130 1032 c 0xf980
73 887 m 0
 49 887 28 867 28 842 c 0
 28 817 49 797 73 797 c 0
 98 797 118 817 118 842 c 0
 118 867 98 887 73 887 c 0
205 148 m 0
 183 148 165 130 165 108 c 0
 165 86 183 68 205 68 c 0
 227 68 245 86 245 108 c 0xfa40
 245 130 227 148 205 148 c 0
EndSplineSet
Validated: 1
EndChar

StartChar: uni0E44
Encoding: 3652 3652 77
Width: 350
VWidth: 0
Flags: W
HStem: -12 80<168.427 241.573> 916 124<-40 19.1777>
VStem: 85 160<209.086 608.773> 85 80<72.4175 145.563> 245 105<825.391 915> 245 80<71.4275 145.453>
LayerCount: 2
Fore
SplineSet
-40 1040 m 1xc8
 74 1008 114 910 114 910 c 1
 240 1030 l 1
 307 1030 350 977 350 930 c 0xc8
 350 765 245 699 245 490 c 2
 245 221 l 1xe0
 292 205 325 160 325 108 c 0
 325 42 271 -12 205 -12 c 0
 139 -12 85 42 85 108 c 2xd4
 85 490 l 1xe0
 92 670 245 800 245 915 c 1
 104 786 l 1
 104 786 55 916 -40 916 c 1
 -40 1040 l 1xc8
205 148 m 0
 183 148 165 130 165 108 c 0
 165 86 183 68 205 68 c 0
 227 68 245 86 245 108 c 0xd4
 245 130 227 148 205 148 c 0
EndSplineSet
Validated: 1
EndChar

StartChar: uni0E45
Encoding: 3653 3653 78
Width: 340
VWidth: 0
Flags: W
HStem: 502 110<-118.26 53.3428>
VStem: 95 160<-260 451.02>
LayerCount: 2
Fore
SplineSet
95 -260 m 1
 95 350 l 1
 93 450 48 502 -5 502 c 0
 -92 502 -132 473 -200 420 c 1
 -200 540 l 1
 -155 575 -101 612 -5 612 c 0
 187 612 248 522 255 350 c 1
 255 -260 l 1
 95 -260 l 1
EndSplineSet
Validated: 1
EndChar

StartChar: uni0E46
Encoding: 3654 3654 79
Width: 760
VWidth: 0
Flags: W
HStem: 210 75<194.489 285.511> 395 75<240 284.78>
VStem: 110 75<294.489 382.364> 295 75<294.489 385.511> 385 160<-260 213.546> 475 125<285.932 480.354>
LayerCount: 2
Fore
SplineSet
263 612 m 1xf4
 352 540 l 1
 441 612 l 1
 553 558 598 460 600 369 c 1xf4
 600 284 545 231 545 120 c 2
 545 -260 l 1
 385 -260 l 1
 385 120 l 2xf8
 385 223 475 282 475 369 c 0
 475 472 432 520 432 520 c 1
 352 455 l 1
 270 520 l 1
 249 514 240 488 240 470 c 1
 312 470 370 412 370 340 c 0
 370 268 312 210 240 210 c 0
 168 210 110 268 110 340 c 0
 110 555 263 612 263 612 c 1xf4
240 395 m 0
 210 395 185 370 185 340 c 0
 185 310 210 285 240 285 c 0
 270 285 295 310 295 340 c 0
 295 370 270 395 240 395 c 0
EndSplineSet
Validated: 1
EndChar

StartChar: uni0E47
Encoding: 3655 3655 36
Width: 0
VWidth: 0
Flags: W
HStem: 674 60<-296.518 -222.545> 680 80<-549.177 -523> 814 50<-296 -224> 895 65<-507.418 -300.171> 910 75<-547.493 -374.482>
VStem: -675 110<766.098 893.748> -350 50<752.246 810> -245 120<1015.96 1090> -220 50<738.116 810>
LayerCount: 2
Fore
SplineSet
-125 1090 m 1x37
 -125 949 -245 895 -367 895 c 0x37
 -430 895 -441 910 -504 910 c 0
 -529 910 -565 879 -565 835 c 0
 -565 792 -544 760 -523 760 c 1x6f
 -455 838 l 1
 -400 838 l 1
 -400 785 -348 752 -348 752 c 1
 -348 752 -350 768 -350 774 c 0
 -350 824 -310 864 -260 864 c 0
 -210 864 -170 824 -170 774 c 0
 -170 723 -210 674 -285 674 c 0xa680
 -361 674 -404 698 -446 759 c 1
 -505 680 l 1
 -653 680 -675 760 -675 835 c 0
 -675 911 -611 985 -517 985 c 0x6e80
 -447 985 -421 960 -377 960 c 0
 -305 960 -245 1021 -245 1090 c 1
 -125 1090 l 1x37
-260 814 m 0
 -282 814 -300 796 -300 774 c 0
 -300 752 -282 734 -260 734 c 0
 -238 734 -220 752 -220 774 c 0xa680
 -220 796 -238 814 -260 814 c 0
EndSplineSet
Validated: 1
Position2: "Left Upper Vowel" dx=-120 dy=0 dh=0 dv=0
Position2: "Normal Upper Vowel" dx=70 dy=0 dh=0 dv=0
EndChar

StartChar: uni0E48
Encoding: 3656 3656 14
Width: 0
VWidth: 0
Flags: W
HStem: 1000 250<-310 -180>
VStem: -310 130<1000 1250>
LayerCount: 2
Fore
SplineSet
-310 1250 m 5
 -180 1250 l 5
 -180 1000 l 5
 -310 1000 l 5
 -310 1250 l 5
EndSplineSet
Validated: 1
Position2: "Thai Tone and Asc Vowel Fix" dx=20 dy=-310 dh=0 dv=0
Position2: "Left-Low Tone" dx=-200 dy=-310 dh=0 dv=0
Position2: "Left-High Tone" dx=-150 dy=0 dh=0 dv=0
Position2: "High Tone" dx=70 dy=0 dh=0 dv=0
Position2: "Low Tone" dx=70 dy=-310 dh=0 dv=0
EndChar

StartChar: uni0E49
Encoding: 3657 3657 24
Width: 0
VWidth: 0
Flags: W
HStem: 988 152<-407.455 -233.219> 988 85<-331 -259.208> 1220 60<-417.068 -342.932>
VStem: -480 60<1142.96 1217.07> -340 60<1142.62 1217.07> -160 130<1175.73 1258>
LayerCount: 2
Fore
SplineSet
-380 1280 m 4xbc
 -325 1280 -280 1235 -280 1180 c 4
 -280 1133 -305 1096 -331 1073 c 5x7c
 -233 1073 -160 1186 -160 1258 c 5
 -30 1258 l 5
 -30 1163 -124 988 -345 988 c 4
 -385 988 -438 997 -480 1014 c 5
 -455 1028 -426 1056 -408 1084 c 5
 -449 1096 -480 1134 -480 1180 c 4
 -480 1235 -435 1280 -380 1280 c 4xbc
-380 1220 m 4
 -402 1220 -420 1202 -420 1180 c 4
 -420 1158 -402 1140 -380 1140 c 4xbc
 -358 1140 -340 1158 -340 1180 c 4
 -340 1202 -358 1220 -380 1220 c 4
EndSplineSet
Validated: 1
Position2: "Thai Tone and Asc Vowel Fix" dx=-60 dy=-310 dh=0 dv=0
Position2: "Left-Low Tone" dx=-250 dy=-310 dh=0 dv=0
Position2: "Left-High Tone" dx=-80 dy=0 dh=0 dv=0
Position2: "High Tone" dx=100 dy=0 dh=0 dv=0
Position2: "Low Tone" dx=100 dy=-310 dh=0 dv=0
EndChar

StartChar: uni0E4A
Encoding: 3658 3658 35
Width: 0
VWidth: 0
Flags: W
HStem: 988 50<-468.588 -394.925> 1118 50<-452.345 -395.719>
VStem: -540 87<1166.14 1212.06> -540 68<1042.15 1115.56> -392 50<1040.81 1114.76> -280 89<1083.08 1209.17> -150 120<1117.64 1260>
LayerCount: 2
Fore
SplineSet
-435 1267 m 5xde
 -370 1223 l 5
 -310 1267 l 5
 -233 1267 -191 1192 -191 1131 c 4
 -191 1119 -193 1092 -196 1082 c 5
 -164 1109 -150 1194 -150 1260 c 5
 -30 1260 l 5
 -30 1039 -159 988 -327 988 c 5
 -296 1032 -280 1077 -280 1121 c 4
 -280 1167 -287 1184 -310 1215 c 5
 -370 1173 l 5
 -435 1215 l 5
 -435 1215 -450 1196 -453 1176 c 4xee
 -453 1173 -453 1169 -452 1166 c 5
 -452 1166 -437 1168 -432 1168 c 4
 -381 1168 -342 1126 -342 1078 c 4
 -342 1028 -382 988 -432 988 c 4
 -503 988 -540 1039 -540 1118 c 5
 -540 1119 -540 1119 -540 1120 c 4
 -540 1191 -495 1267 -435 1267 c 5xde
-432 1118 m 4
 -454 1118 -472 1100 -472 1078 c 4xde
 -472 1056 -454 1038 -432 1038 c 4
 -409 1038 -392 1056 -392 1078 c 4
 -392 1100 -409 1118 -432 1118 c 4
EndSplineSet
Validated: 1
Position2: "Thai Tone and Asc Vowel Fix" dx=-60 dy=-310 dh=0 dv=0
Position2: "Left-Low Tone" dx=-250 dy=-310 dh=0 dv=0
Position2: "Left-High Tone" dx=-100 dy=0 dh=0 dv=0
Position2: "High Tone" dx=100 dy=0 dh=0 dv=0
Position2: "Low Tone" dx=100 dy=-310 dh=0 dv=0
EndChar

StartChar: uni0E4B
Encoding: 3659 3659 16
Width: 0
VWidth: 0
Flags: W
HStem: 1085 80<-400 -310 -180 -90>
VStem: -310 130<1000 1085 1165 1250>
LayerCount: 2
Fore
SplineSet
-310 1250 m 5
 -180 1250 l 5
 -180 1165 l 5
 -90 1165 l 5
 -90 1085 l 5
 -180 1085 l 5
 -180 1000 l 5
 -310 1000 l 5
 -310 1085 l 5
 -400 1085 l 5
 -400 1165 l 5
 -310 1165 l 5
 -310 1250 l 5
EndSplineSet
Validated: 1
Position2: "Thai Tone and Asc Vowel Fix" dx=-80 dy=-310 dh=0 dv=0
Position2: "Left-Low Tone" dx=-250 dy=-310 dh=0 dv=0
Position2: "Left-High Tone" dx=-150 dy=0 dh=0 dv=0
Position2: "High Tone" dx=70 dy=0 dh=0 dv=0
Position2: "Low Tone" dx=70 dy=-310 dh=0 dv=0
EndChar

StartChar: uni0E4C
Encoding: 3660 3660 29
Width: 0
VWidth: 0
Flags: W
HStem: 918 65<-399.868 -319.488>
VStem: -480 75<987.488 1067.73> -315 65<987.488 1068.27> -280 120<1198.75 1279>
LayerCount: 2
Fore
SplineSet
-280 1279 m 1xd0
 -160 1279 l 1xd0
 -160 1154 -230 1103 -283 1102 c 1
 -270 1090 -250 1067 -250 1028 c 0xe0
 -250 967 -299 918 -360 918 c 0
 -421 918 -480 967 -480 1028 c 0
 -480 1082 -448 1128 -366 1158 c 0
 -306 1180 -280 1216 -280 1279 c 1xd0
-360 1073 m 0
 -385 1073 -405 1053 -405 1028 c 0
 -405 1003 -385 983 -360 983 c 0
 -335 983 -315 1003 -315 1028 c 0xe0
 -315 1053 -335 1073 -360 1073 c 0
EndSplineSet
Validated: 1
Position2: "Thai Tone and Asc Vowel Fix" dx=0 dy=-240 dh=0 dv=0
Position2: "Left-Low Tone" dx=-150 dy=-240 dh=0 dv=0
Position2: "Left-High Tone" dx=-100 dy=10 dh=0 dv=0
Position2: "High Tone" dx=100 dy=10 dh=0 dv=0
Position2: "Low Tone" dx=100 dy=-240 dh=0 dv=0
EndChar

StartChar: uni0E4E
Encoding: 3662 3662 41
Width: 0
VWidth: 0
Flags: W
HStem: 678 85<-456.474 -410> 883 85<-456.474 -410> 1028 85<-312.683 -217.317>
VStem: -555 85<775.317 870.683> -410 85<968 1014.47> -205 85<968 1014.47>
LayerCount: 2
Fore
SplineSet
-265 1113 m 4
 -185 1113 -120 1048 -120 968 c 5
 -205 968 l 5
 -205 1001 -232 1028 -265 1028 c 4
 -298 1028 -325 1001 -325 968 c 4
 -325 945 -304 923 -304 923 c 5
 -269 888 l 5
 -329 828 l 5
 -342 840 -355 852 -365 862 c 5
 -376 875 -392 883 -410 883 c 4
 -443 883 -470 856 -470 823 c 4
 -470 790 -443 763 -410 763 c 5
 -410 678 l 5
 -490 678 -555 743 -555 823 c 4
 -555 903 -490 968 -410 968 c 5
 -410 1048 -345 1113 -265 1113 c 4
EndSplineSet
Validated: 1
EndChar

StartChar: uni0E4F
Encoding: 3663 3663 80
Width: 760
VWidth: 0
Flags: W
HStem: 0 90<281.776 478.224> 170 75<334.489 425.511> 355 75<334.489 425.511> 510 90<281.776 478.224>
VStem: 80 90<201.776 398.224> 250 75<254.489 345.511> 435 75<254.489 345.511> 590 90<201.776 398.224>
LayerCount: 2
Back
SplineSet
380 600 m 4
 546 600 680 466 680 300 c 4
 680 134 546 0 380 0 c 4
 214 0 80 134 80 300 c 4
 80 466 214 600 380 600 c 4
380 500 m 4
 270 500 180 410 180 300 c 4
 180 190 270 100 380 100 c 4
 490 100 580 190 580 300 c 4
 580 410 490 500 380 500 c 4
380 430 m 4
 452 430 510 372 510 300 c 4
 510 228 452 170 380 170 c 4
 308 170 250 228 250 300 c 4
 250 372 308 430 380 430 c 4
380 355 m 4
 350 355 325 330 325 300 c 4
 325 270 350 245 380 245 c 4
 410 245 435 270 435 300 c 4
 435 330 410 355 380 355 c 4
EndSplineSet
Fore
SplineSet
380 600 m 0
 546 600 680 466 680 300 c 0
 680 134 546 0 380 0 c 0
 214 0 80 134 80 300 c 0
 80 466 214 600 380 600 c 0
380 510 m 0
 264 510 170 416 170 300 c 0
 170 184 264 90 380 90 c 0
 496 90 590 184 590 300 c 0
 590 416 496 510 380 510 c 0
380 430 m 0
 452 430 510 372 510 300 c 0
 510 228 452 170 380 170 c 0
 308 170 250 228 250 300 c 0
 250 372 308 430 380 430 c 0
380 355 m 0
 350 355 325 330 325 300 c 0
 325 270 350 245 380 245 c 0
 410 245 435 270 435 300 c 0
 435 330 410 355 380 355 c 0
EndSplineSet
Validated: 1
EndChar

StartChar: uni0E54
Encoding: 3668 3668 30
Width: 1092
VWidth: 0
Flags: W
HStem: 0 160<406.977 689 861.375 972> 510 120<633.128 746.872> 692 180<398.812 819.541>
VStem: 80 210<295.978 568.273> 490 120<372.372 486.872> 770 120<371.796 486.872>
LayerCount: 2
Back
SplineSet
1092 1100 m 5
 1092 900 l 5
 962 900 902 692 902 692 c 5
 492 692 l 5
 369 691 290 592 290 436 c 4
 290 280 369 160 492 160 c 6
 689 160 l 6
 645 160 490 275 490 430 c 4
 490 540 580 630 690 630 c 4
 800 630 890 540 890 430 c 4
 890 355 849 290 789 256 c 5
 837 197 873 160 972 160 c 5
 972 0 l 5
 492 0 l 6
 218 0 80 192 80 436 c 4
 80 680 264 872 492 872 c 6
 792 872 l 5
 792 872 878 1100 1092 1100 c 5
690 510 m 4
 646 510 610 474 610 430 c 4
 610 386 646 350 690 350 c 4
 734 350 770 386 770 430 c 4
 770 474 734 510 690 510 c 4
EndSplineSet
Fore
SplineSet
1092 1100 m 1
 1092 900 l 1
 962 900 959 800 910 742 c 0
 885 712 843 692 777 692 c 2
 777 692 615 692 492 692 c 1
 369 691 290 592 290 436 c 0
 290 280 369 160 492 160 c 2
 689 160 l 2
 645 160 490 275 490 430 c 0
 490 540 580 630 690 630 c 0
 800 630 890 540 890 430 c 0
 890 355 849 290 789 256 c 1
 837 197 873 160 972 160 c 1
 972 0 l 1
 492 0 l 2
 218 0 80 192 80 436 c 0
 80 680 264 872 492 872 c 2
 812 872 l 1
 812 872 878 1100 1092 1100 c 1
690 510 m 0
 646 510 610 474 610 430 c 0
 610 386 646 350 690 350 c 0
 734 350 770 386 770 430 c 0
 770 474 734 510 690 510 c 0
EndSplineSet
Validated: 1
EndChar

StartChar: uni0E5B
Encoding: 3675 3675 2
Width: 1340
VWidth: 0
Flags: W
HStem: -12 100<268.692 432.745> 149 111<259.013 361.598> 240 100<912.093 1160> 340 50<254 326> 512 100<237.478 364.975>
VStem: 60 110<196.827 427.233> 200 50<264.515 336> 330 50<263.151 336> 400 110<252.64 474.851> 590 110<505.4 560> 690 100<90 134.1>
LayerCount: 2
Back
SplineSet
300 612 m 4xbfe0
 437 612 510 504 510 380 c 4
 510 237 460 149 335 149 c 4
 243 149 200 237 200 300 c 4
 200 350 240 390 290 390 c 4
 340 390 380 350 380 300 c 4
 380 275 371 253 355 237 c 5
 396 252 400 335 400 380 c 4
 400 460 363 512 300 512 c 4
 233 512 170 431 170 300 c 4
 170 190 236 88 320 88 c 4
 520 88 560 330 560 570 c 5
 650 570 l 5
 685 350 l 5
 725 540 l 5
 790 540 l 5xdfd0
 830 345 l 5
 895 520 l 5
 960 355 l 5
 1000 475 l 5
 1000 475 1064 310 1120 310 c 6
 1360 310 l 5
 1360 220 l 5
 1120 220 l 6
 1067 220 1040 222 1020 255 c 5
 960 60 l 5
 895 230 l 5
 830 45 l 5
 770 220 l 5
 740 25 l 5
 670 25 l 5
 635 227 l 5
 598 104 521 -12 320 -12 c 4
 145 -12 60 153 60 300 c 4
 60 466 160 612 300 612 c 4xbfe0
290 340 m 4
 268 340 250 322 250 300 c 4
 250 278 268 260 290 260 c 4
 312 260 330 278 330 300 c 4
 330 322 312 340 290 340 c 4
EndSplineSet
Fore
SplineSet
300 612 m 0xafa0
 437 612 510 504 510 380 c 0
 510 237 460 149 335 149 c 0
 243 149 200 237 200 300 c 0
 200 350 240 390 290 390 c 0
 340 390 380 350 380 300 c 0
 380 275 371 253 355 237 c 1
 396 252 400 335 400 380 c 0
 400 460 363 512 300 512 c 0
 233 512 170 431 170 300 c 0
 170 190 256 88 340 88 c 0
 529 88 590 320 590 560 c 1
 700 560 l 1xdfc0
 740 300 l 1
 780 500 l 1
 860 500 l 1
 879 417 900 340 960 340 c 2
 1160 340 l 1
 1160 240 l 1
 960 240 l 2
 842 240 830 300 830 300 c 1
 790 90 l 1
 690 90 l 1
 650 300 l 1
 635 181 585 -12 340 -12 c 0
 165 -12 60 153 60 300 c 0
 60 466 160 612 300 612 c 0xafa0
290 340 m 0
 268 340 250 322 250 300 c 0
 250 278 268 260 290 260 c 0
 312 260 330 278 330 300 c 0
 330 322 312 340 290 340 c 0
EndSplineSet
Validated: 1
EndChar

StartChar: uni0E10.descless
Encoding: 63232 63232 3
Width: 610
VWidth: 0
Flags: W
HStem: 94 65<149.488 230.15> 249 65<149.488 229.625> 490 116<532.864 580> 502 110<238.747 427.2>
VStem: 80 65<163.488 244.512> 365 150<110.038 327.287>
LayerCount: 2
Fore
SplineSet
315 612 m 0xdc
 403 612 461 571 490 540 c 1
 518 580 580 606 580 606 c 1
 580 490 l 1xec
 580 490 544 488 490 430 c 1
 434 486 369 502 315 502 c 0
 261 502 205 461 205 429 c 1
 380 409 515 391 515 289 c 2
 515 21 l 1
 515 21 488 -12 355 -12 c 1
 355 -12 315 70 274 132 c 1
 253 109 223 94 190 94 c 0
 129 94 80 143 80 204 c 0
 80 265 129 314 190 314 c 0
 314 314 382 110 382 110 c 1
 382 110 365 162 365 200 c 2
 365 296 l 2
 365 361 130 359 45 369 c 1
 45 539 195 612 315 612 c 0xdc
190 249 m 0
 165 249 145 229 145 204 c 0
 145 179 165 159 190 159 c 0
 215 159 235 179 235 204 c 0
 235 229 215 249 190 249 c 0
EndSplineSet
Validated: 1
EndChar

StartChar: uni0E0D.descless
Encoding: 63247 63247 4
Width: 990
VWidth: 0
Flags: W
HStem: -12 110<619.172 748.19> -12 80<173.427 246.573> 502 110<241.752 394.197>
VStem: 90 160<209.086 347.483> 90 80<72.4175 145.563> 250 80<71.4275 145.453> 440 160<116.937 452.475> 740 160<115.015 590>
LayerCount: 2
Fore
SplineSet
325 612 m 1x73
 521 612 599 497 600 334 c 1
 600 190 l 2
 600 114 641 98 675 98 c 0
 718 98 750 115 750 115 c 1
 750 115 740 136 740 186 c 2
 740 590 l 1
 900 590 l 1
 900 80 l 1
 900 80 827 -12 675 -12 c 0
 523 -12 440 29 440 200 c 2
 440 334 l 2
 440 417 418 502 325 502 c 0
 253 502 210 451 190 430 c 1
 290 379 l 1
 290 379 250 351 250 304 c 2
 250 221 l 1xb3
 297 205 330 160 330 108 c 0
 330 42 276 -12 210 -12 c 0
 144 -12 90 42 90 108 c 2x6f
 90 284 l 2
 90 312 112 355 145 374 c 1
 50 423 l 1
 114 542 195 610 325 612 c 1x73
210 148 m 0
 188 148 170 130 170 108 c 0
 170 86 188 68 210 68 c 0
 232 68 250 86 250 108 c 0x6f
 250 130 232 148 210 148 c 0
EndSplineSet
Validated: 1
EndChar

StartChar: uni0E48.nikhahit
Encoding: 63251 63251 93
Width: 0
VWidth: 0
Flags: W
HStem: 670 80<-235.97 -134.03> 880 80<-235.97 -134.03>
VStem: -330 80<764.03 865.97> -251 130<1000 1250> -120 80<764.03 865.97>
LayerCount: 2
Fore
SplineSet
-251 1250 m 1xd8
 -121 1250 l 1
 -121 1000 l 1
 -251 1000 l 1
 -251 1250 l 1xd8
EndSplineSet
Refer: 39 3661 N 1 0 0 1 100 0 2
Validated: 1
Position2: "Tone-Nikhahit" dx=-250 dy=0 dh=0 dv=0
LCarets2: 1 0 
Ligature2: "'liga' Tone-Nikhahit Ligature" uni0E48 uni0E4D
EndChar

StartChar: uni0E49.nikhahit
Encoding: 63252 63252 94
Width: 0
VWidth: 0
Flags: W
HStem: 670 80<-235.97 -134.03> 880 80<-235.97 -134.03> 988 152<-287.455 -113.219> 988 85<-211 -139.208> 1220 60<-297.068 -222.932>
VStem: -360 60<1142.96 1217.07> -330 80<764.03 865.97> -220 60<1142.62 1217.07> -120 80<764.03 865.97> -40 130<1175.73 1258>
LayerCount: 2
Fore
SplineSet
-260 1280 m 4xed40
 -205 1280 -160 1235 -160 1180 c 4
 -160 1133 -185 1096 -211 1073 c 5xdd40
 -113 1073 -40 1186 -40 1258 c 5
 90 1258 l 5
 90 1163 -4 988 -225 988 c 4
 -265 988 -318 997 -360 1014 c 5
 -335 1028 -306 1056 -288 1084 c 5
 -329 1096 -360 1134 -360 1180 c 4
 -360 1235 -315 1280 -260 1280 c 4xed40
-260 1220 m 4
 -282 1220 -300 1202 -300 1180 c 4
 -300 1158 -282 1140 -260 1140 c 4xed
 -238 1140 -220 1158 -220 1180 c 4
 -220 1202 -238 1220 -260 1220 c 4
EndSplineSet
Refer: 39 3661 N 1 0 0 1 100 0 2
Validated: 1
Position2: "Tone-Nikhahit" dx=-250 dy=0 dh=0 dv=0
LCarets2: 1 0 
Ligature2: "'liga' Tone-Nikhahit Ligature" uni0E49 uni0E4D
EndChar

StartChar: uni0E4A.nikhahit
Encoding: 63253 63253 96
Width: 0
VWidth: 0
Flags: W
HStem: 670 80<-235.97 -134.03> 880 80<-235.97 -134.03> 988 50<-318.588 -244.925> 1118 50<-302.345 -245.719>
VStem: -390 87<1166.14 1212.06> -390 68<1042.15 1115.56> -330 80<764.03 865.97> -242 50<1040.81 1114.76> -130 89<1083.08 1209.17> -120 80<764.03 865.97> 0 120<1117.64 1260>
LayerCount: 2
Fore
SplineSet
-285 1267 m 5xf520
 -220 1223 l 5
 -160 1267 l 5
 -83 1267 -41 1192 -41 1131 c 4
 -41 1119 -43 1092 -46 1082 c 5
 -14 1109 0 1194 0 1260 c 5
 120 1260 l 5
 120 1039 -9 988 -177 988 c 5
 -146 1032 -130 1077 -130 1121 c 4
 -130 1167 -137 1184 -160 1215 c 5
 -220 1173 l 5
 -285 1215 l 5
 -285 1215 -300 1196 -303 1176 c 4xf9a0
 -303 1173 -303 1169 -302 1166 c 5
 -302 1166 -287 1168 -282 1168 c 4
 -231 1168 -192 1126 -192 1078 c 4
 -192 1028 -232 988 -282 988 c 4
 -353 988 -390 1039 -390 1118 c 5
 -390 1119 -390 1119 -390 1120 c 4
 -390 1191 -345 1267 -285 1267 c 5xf520
-282 1118 m 4
 -304 1118 -322 1100 -322 1078 c 4xf520
 -322 1056 -304 1038 -282 1038 c 4
 -259 1038 -242 1056 -242 1078 c 4
 -242 1100 -259 1118 -282 1118 c 4
EndSplineSet
Refer: 39 3661 N 1 0 0 1 100 0 2
Validated: 1
Position2: "Tone-Nikhahit" dx=-250 dy=0 dh=0 dv=0
LCarets2: 1 0 
Ligature2: "'liga' Tone-Nikhahit Ligature" uni0E4A uni0E4D
EndChar

StartChar: uni0E4B.nikhahit
Encoding: 63254 63254 95
Width: 0
VWidth: 0
Flags: W
HStem: 670 80<-235.97 -134.03> 880 80<-235.97 -134.03> 1085 80<-340 -250 -120 -30>
VStem: -330 80<764.03 865.97> -250 130<1000 1085 1165 1250> -120 80<764.03 865.97>
LayerCount: 2
Fore
SplineSet
-250 1250 m 5xe8
 -120 1250 l 5
 -120 1165 l 5
 -30 1165 l 5
 -30 1085 l 5
 -120 1085 l 5
 -120 1000 l 5
 -250 1000 l 5
 -250 1085 l 5
 -340 1085 l 5
 -340 1165 l 5
 -250 1165 l 5
 -250 1250 l 5xe8
EndSplineSet
Refer: 39 3661 N 1 0 0 1 100 0 2
Validated: 1
Position2: "Tone-Nikhahit" dx=-250 dy=0 dh=0 dv=0
LCarets2: 1 0 
Ligature2: "'liga' Tone-Nikhahit Ligature" uni0E4B uni0E4D
EndChar

StartChar: uni0E0F.short
Encoding: 63290 63290 91
Width: 690
VWidth: 0
Flags: W
HStem: -242 60<107.437 182.265> -102 60<107.932 182.077> -20 20G<240 330> -12 80<123.427 196.573> 502 110<241.752 394.197>
VStem: 40 80<71.4275 145.453> 45 60<-179.068 -104.932> 120 160<209.086 357.901> 200 80<72.4175 145.563> 240 90<-75.1248 0> 440 160<-96.9818 452.475>
LayerCount: 2
Fore
SplineSet
325 612 m 1xd920
 521 612 599 497 600 334 c 1
 600 146 600 18 600 -170 c 1
 600 -170 595 -228 490 -242 c 1
 392 -147 l 1
 299 -242 l 1
 245 -184 l 1
 227 -213 197 -242 145 -242 c 0
 93 -242 45 -197 45 -142 c 0
 45 -87 90 -42 145 -42 c 0
 177 -42 204 -56 227 -77 c 1
 235 -67 240 -38 240 0 c 1
 330 0 l 1xea60
 330 -51 296 -112 279 -130 c 1
 300 -152 l 1
 392 -50 l 1
 490 -152 l 1
 490 -152 440 -48 440 0 c 0
 440 127 440 207 440 334 c 0
 440 417 418 502 325 502 c 0
 253 502 210 451 190 430 c 1
 300 379 l 1
 300 379 280 351 280 304 c 2xe920
 280 108 l 2
 280 42 226 -12 160 -12 c 0
 94 -12 40 42 40 108 c 0xdca0
 40 160 73 205 120 221 c 1
 120 284 l 2
 120 312 132 355 165 374 c 1
 50 423 l 1
 114 542 195 610 325 612 c 1xd920
160 148 m 0
 138 148 120 130 120 108 c 0
 120 86 138 68 160 68 c 0
 182 68 200 86 200 108 c 0xdca0
 200 130 182 148 160 148 c 0
145 -102 m 0
 123 -102 105 -120 105 -142 c 0xca20
 105 -164 123 -182 145 -182 c 0
 167 -182 185 -164 185 -142 c 0
 185 -120 167 -102 145 -102 c 0
EndSplineSet
Validated: 1
EndChar

StartChar: uni0E0E.short
Encoding: 63291 63291 92
Width: 690
VWidth: 0
Flags: W
HStem: -242 60<157.437 232.211> -102 60<157.726 232.264> -20 20G<265 360> -12 80<123.427 196.573> 502 110<241.752 394.197>
VStem: 40 80<71.4275 145.453> 95 60<-179.068 -104.932> 120 160<209.086 357.901> 200 80<72.4175 145.563> 265 95<-57.8896 0> 440 160<-161.963 452.475>
LayerCount: 2
Fore
SplineSet
325 612 m 1xd920
 521 612 599 497 600 334 c 1
 600 146 600 18 600 -170 c 1
 600 -170 543 -228 460 -242 c 1
 460 -242 363 -200 304 -165 c 1
 283 -208 249 -242 195 -242 c 0
 143 -242 95 -197 95 -142 c 0
 95 -87 139 -42 195 -42 c 0
 222 -42 233 -48 252 -59 c 1
 259 -44 265 -20 265 0 c 1
 360 0 l 1xea60
 360 -28 346 -83 331 -101 c 1
 378 -128 460 -162 460 -162 c 1
 460 -162 440 -112 440 -32 c 0
 440 110 440 192 440 334 c 0
 440 417 418 502 325 502 c 0
 253 502 210 451 190 430 c 1
 300 379 l 1
 300 379 280 351 280 304 c 2xe920
 280 108 l 2
 280 42 226 -12 160 -12 c 0
 94 -12 40 42 40 108 c 0xdca0
 40 160 73 205 120 221 c 1
 120 284 l 2
 120 312 132 355 165 374 c 1
 50 423 l 1
 114 542 195 610 325 612 c 1xd920
160 148 m 0
 138 148 120 130 120 108 c 0
 120 86 138 68 160 68 c 0
 182 68 200 86 200 108 c 0xdca0
 200 130 182 148 160 148 c 0
195 -102 m 0
 173 -102 155 -120 155 -142 c 0xca20
 155 -164 173 -182 195 -182 c 0
 217 -182 235 -164 235 -142 c 0
 235 -120 217 -102 195 -102 c 0
EndSplineSet
Validated: 1
EndChar

StartChar: Boon
Encoding: 63743 63743 0
Width: 1450
VWidth: 0
Flags: W
HStem: -394 181<560.402 640.588> -320 100<1085.38 1199.88> -123 75<560.516 639.484> -113 65<949.488 1030.51> -12 120<379.5 527.377 1083.43 1179.58> 498 120<722.957 849.652> 512 100<151.832 248.168>
VStem: 40 100<403.092 500.168> 170 190<127.105 301.374> 260 100<403.108 499.443> 480 75<-208.066 -128.515> 530 190<118.485 492.666> 560 160<-394 -269.086> 645 75<-208.588 -129.619> 880 190<121.59 464.65> 880 65<-197.852 -117.488> 1035 65<-198.71 -117.488> 1180 190<113.552 590>
LayerCount: 2
Fore
SplineSet
780 618 m 1x0d9040
 976 618 1069 503 1070 340 c 1
 1070 200 l 2
 1070 137 1091 108 1125 108 c 0
 1159 108 1180 130 1180 130 c 1
 1180 590 l 1
 1370 590 l 1
 1370 60 l 1
 1370 60 1277 -12 1125 -12 c 0
 973 -12 880 56 880 200 c 2
 880 340 l 2
 880 423 873 498 780 498 c 0
 734 498 720 475 720 475 c 1x0d9240
 720 60 l 1
 720 60 648 -12 435 -12 c 0
 222 -12 170 61 170 205 c 2
 170 295 l 1x0d8440
 96 309 40 374 40 452 c 0
 40 540 112 612 200 612 c 0
 288 612 360 540 360 452 c 2x0b4040
 360 205 l 2
 360 142 386 108 440 108 c 0
 494 108 530 130 530 130 c 1
 530 560 l 1
 530 560 629 616 780 618 c 1x0d9040
200 512 m 0x0b4040
 167 512 140 485 140 452 c 0
 140 419 167 392 200 392 c 0
 233 392 260 419 260 452 c 0
 260 485 233 512 200 512 c 0x0b4040
600 -48 m 0xa92840
 666 -48 720 -102 720 -168 c 2xa92440
 720 -394 l 1
 560 -394 l 1
 560 -281 l 1
 513 -265 480 -220 480 -168 c 0
 480 -102 534 -48 600 -48 c 0xa92840
990 -48 m 0x5901c0
 1051 -48 1100 -97 1100 -158 c 0
 1100 -178 1095 -197 1085 -213 c 1x9901c0
 1097 -217 1110 -220 1125 -220 c 0
 1202 -219 1242 -157 1260 -98 c 1
 1410 -98 l 1
 1361 -219 1269 -320 1125 -320 c 0
 1023 -320 880 -270 880 -158 c 0
 880 -97 929 -48 990 -48 c 0x5901c0
990 -113 m 0
 965 -113 945 -133 945 -158 c 0
 945 -183 965 -203 990 -203 c 0
 1015 -203 1035 -183 1035 -158 c 0
 1035 -133 1015 -113 990 -113 c 0
600 -123 m 0xa92440
 575 -123 555 -143 555 -168 c 0
 555 -193 575 -213 600 -213 c 0
 625 -213 645 -193 645 -168 c 0
 645 -143 625 -123 600 -123 c 0xa92440
EndSplineSet
Validated: 1
EndChar
